<svg xmlns="http://www.w3.org/2000/svg" width="90" height="90" viewBox="0 0 90 90"><defs><style>.a{fill:#fff;}.b{fill:#fef2f0;stroke:#ff6c7a;stroke-linecap:round;stroke-linejoin:round;}.b,.c{stroke-width:1.6px;}.c{fill:#9fe3dc;stroke:#40c7ba;stroke-miterlimit:10;}.d{fill:#ff6c7a;}</style></defs><g transform="translate(-4326 -1487)"><circle class="a" cx="45" cy="45" r="45" transform="translate(4326 1487)"/><g transform="translate(4315.456 1361.155)"><path class="b" d="M61.947,197.872H76.161V165.05l-20.479-15.9L35.2,165.05v32.822H50.091v-15.14H61.785v5.225"/><path class="c" d="M79.771,163.568a1.038,1.038,0,0,1-.639-.22l-23.45-18.209L32.231,163.348a1.044,1.044,0,0,1-1.467-.185c-.355-.456-.272-5.036.185-5.39l24.092-18.707a1.042,1.042,0,0,1,1.282,0l24.091,18.707c.457.354.54,4.934.185,5.39A1.044,1.044,0,0,1,79.771,163.568Z"/><circle class="d" cx="1.112" cy="1.112" r="1.112" transform="translate(60.541 190.644)"/></g></g></svg>