<svg xmlns="http://www.w3.org/2000/svg" width="90" height="90" viewBox="0 0 90 90"><defs><style>.a,.b{fill:#fff;}.b{stroke:#535353;stroke-linecap:round;stroke-linejoin:round;}.b,.c{stroke-width:1.6px;}.c{fill:#9fe3dc;stroke:#40c7ba;stroke-miterlimit:10;}</style></defs><g transform="translate(-4326 -1487)"><circle class="a" cx="45" cy="45" r="45" transform="translate(4326 1487)"/><g transform="translate(4454.485 1338.781)"><path class="b" d="M-83.817,224.273a4,4,0,0,1-3.067-1.4c-1.443-1.521-12.314-12.93-15.288-15.853-3.144-3.092-4.313-6.038-4.313-10.87V170.437a5.251,5.251,0,0,1,3.406-4.7,6.685,6.685,0,0,1,2.6-.518,7.408,7.408,0,0,1,1.578.174,9.284,9.284,0,0,1,4.488,2.555c3.313,3.243,7.639,7.712,9.923,10.087l.673.7"/><path class="c" d="M-83.817,178.735l.673-.7c2.284-2.375,6.61-6.844,9.923-10.087a9.28,9.28,0,0,1,4.488-2.555,7.408,7.408,0,0,1,1.578-.174,6.688,6.688,0,0,1,2.6.518,5.252,5.252,0,0,1,3.406,4.7v25.712c0,4.832-1.169,7.778-4.313,10.87-2.974,2.923-13.845,14.332-15.288,15.853a4.006,4.006,0,0,1-3.067,1.4"/></g></g></svg>