<svg xmlns="http://www.w3.org/2000/svg" width="90" height="90" viewBox="0 0 90 90"><defs><style>.a{fill:#fff;}.b,.c,.e{fill:#fef2f0;}.b,.g,.k{stroke:#535353;}.b,.e,.g,.h,.k{stroke-linecap:round;stroke-linejoin:round;}.b,.e,.h,.k{stroke-width:1.6px;}.d,.h{fill:#9fe3dc;}.e{stroke:#ff6c7a;}.f,.k{fill:#535353;}.g{fill:none;stroke-width:3px;}.h{stroke:#40c7ba;}.i{fill:#40c7ba;}.j{fill:#ff6c7a;}</style></defs><g transform="translate(-4326 -1487)"><circle class="a" cx="45" cy="45" r="45" transform="translate(4326 1487)"/><g transform="translate(4312.501 1468.253)"><path class="b" d="M74.245,84.7V94.34a1.786,1.786,0,0,0,1.786,1.786h0a1.787,1.787,0,0,0,1.786-1.786h0V84.7" transform="translate(-1.739 -1.895)"/><path class="c" d="M55.681,69.5s4.714,1.371,4.714-2.419A2.949,2.949,0,0,0,55.681,69.5Z" transform="translate(-1.048 -1.22)"/><path class="c" d="M66.642,39.011s.2-2.265,1.961-1.79,4.359,6.59,3.063,7.755S66.346,44.923,66.642,39.011Z" transform="translate(-1.455 -0.127)"/><path class="d" d="M71.276,73.668s-.055-6.226-.012-6.8.3-16.194.3-16.194h7.191l1.1,13.718-8.573,9.66" transform="translate(-1.627 -0.63)"/><path class="e" d="M43.219,69.562V55.274h-.357A15.359,15.359,0,0,0,27.573,69.562" transform="translate(-0.003 -0.801)"/><circle class="f" cx="2.183" cy="2.183" r="2.183" transform="translate(32.459 88.227)"/><circle class="f" cx="2.183" cy="2.183" r="2.183" transform="translate(48.891 88.227)"/><path class="b" d="M60.668,66.4H56.382l-1.429,2.858" transform="translate(-1.021 -1.215)"/><path class="g" d="M75.756,43.3" transform="translate(-1.795 -0.355)"/><path class="g" d="M69.793,49.338" transform="translate(-1.573 -0.58)"/><path class="h" d="M71.222,74.508a21.292,21.292,0,0,1-1.429,10s21.432-1.429,22.145-5.715S79.795,64.506,79.795,64.506L79.08,53.79" transform="translate(-1.573 -0.745)"/><path class="b" d="M71.084,45.38c-2.143,1.429-5-2.858-5-6.43" transform="translate(-1.435 -0.194)"/><circle class="i" cx="0.955" cy="0.955" r="0.955" transform="translate(67.764 69.519)"/><path class="h" d="M70.665,51.267c-.5,2.429.929,9.5.929,11s-10,2.143-10.716,3.572a2.408,2.408,0,0,0,2.143,3.572c2.143,0,10.716-3.572,11.43-4.286,2.143-.714,0-11.43,0-11.43" transform="translate(-1.23 -0.652)"/><path class="e" d="M27.57,70.114c0,.357-.071.714-.071,1.072a15.36,15.36,0,0,0,30.719.011v-.011a5.466,5.466,0,0,0-.071-1.072H35.357" transform="translate(0 -1.353)"/><circle class="j" cx="0.955" cy="0.955" r="0.955" transform="translate(30.615 68.091)"/><path class="k" d="M66.817,35.9c-1.287,1.857,5,4.286,5,4.286a38.166,38.166,0,0,0,0,7.144c.714,9.287,15,2.858,7.858-3.572-.786-.643-2.858,0-2.858-5.715C76.819,34.47,69.675,31.612,66.817,35.9Z" transform="translate(-1.456)"/></g></g></svg>