<svg xmlns="http://www.w3.org/2000/svg" width="90" height="90" viewBox="0 0 90 90"><defs><style>.a{fill:#fff;}.b{fill:#fef2f0;}.c{fill:#ff6c7a;}.d{fill:#40c7ba;}.e{fill:#535353;}</style></defs><g transform="translate(-4326 -1487)"><circle class="a" cx="45" cy="45" r="45" transform="translate(4326 1487)"/><g transform="translate(4144.387 1358.491)"><path class="b" d="M226.613,205.509a32,32,0,1,1,22.628-9.373A32,32,0,0,1,226.613,205.509Z"/><path class="c" d="M226.613,205.509a32,32,0,1,1,22.628-9.373A32,32,0,0,1,226.613,205.509Zm0-61.786a29.787,29.787,0,1,0,21.063,8.725,29.788,29.788,0,0,0-21.063-8.725h0Z"/><path class="d" d="M226.613,152.308a1.845,1.845,0,1,1,1.845-1.845A1.845,1.845,0,0,1,226.613,152.308Z"/><path class="d" d="M226.613,198.436a1.845,1.845,0,1,1,1.845-1.845h0A1.847,1.847,0,0,1,226.613,198.436Z"/><path class="d" d="M249.678,173.99a1.845,1.845,0,1,1,1.844-1.846h0A1.846,1.846,0,0,1,249.678,173.99Z"/><path class="d" d="M203.549,173.99a1.845,1.845,0,1,1,1.845-1.845A1.845,1.845,0,0,1,203.549,173.99Z"/><path class="e" d="M226.166,174.5a1.2,1.2,0,0,1-.848-2.048l14.364-14.364a1.2,1.2,0,0,1,1.7,1.7l-14.364,14.364A1.189,1.189,0,0,1,226.166,174.5Z"/><path class="e" d="M226.429,174.493a1.189,1.189,0,0,1-.848-.351l-9.511-9.511a1.2,1.2,0,1,1,1.7-1.7l9.511,9.511a1.2,1.2,0,0,1-.848,2.048Z"/></g></g></svg>