<svg xmlns="http://www.w3.org/2000/svg" width="90" height="90" viewBox="0 0 90 90"><defs><style>.a,.e{fill:#fff;}.b{fill:none;stroke:#535353;}.b,.c,.e{stroke-linecap:round;stroke-linejoin:round;stroke-width:1.6px;}.c{fill:#9fe3dc;stroke:#40c7ba;}.d{fill:#40c7ba;}.e{stroke:#ff6c7a;}</style></defs><g transform="translate(-4326 -1487)"><circle class="a" cx="45" cy="45" r="45" transform="translate(4326 1487)"/><g transform="translate(3952.817 1364.879)"><path class="b" d="M409.57,135.121c-1.366,13.183,3.484,13.183,5.67,7.855,2.6-6.421,7.172-2.527,5.191,7.787"/><path class="c" d="M390.034,183.472V151.72h59.36V182.8"/><line class="b" x2="6.148" transform="translate(395.841 158.824)"/><line class="b" x2="6.148" transform="translate(406.223 158.824)"/><line class="b" x2="6.216" transform="translate(437.372 158.824)"/><line class="b" x2="6.148" transform="translate(426.989 158.824)"/><line class="b" x2="6.148" transform="translate(416.606 158.824)"/><line class="b" x2="6.148" transform="translate(395.841 164.903)"/><line class="b" x2="6.148" transform="translate(406.223 164.903)"/><line class="b" x2="6.216" transform="translate(437.372 164.903)"/><line class="b" x2="6.148" transform="translate(426.989 164.903)"/><line class="b" x2="6.148" transform="translate(416.606 164.903)"/><line class="b" x2="6.148" transform="translate(396.045 170.095)"/><line class="b" x2="2.937" transform="translate(409.639 170.095)"/><line class="b" x2="6.216" transform="translate(437.577 170.095)"/><line class="b" x2="3.415" transform="translate(427.194 170.095)"/><line class="b" x2="6.148" transform="translate(416.811 170.095)"/><line class="b" x2="20.971" transform="translate(408.409 175.901)"/><circle class="d" cx="0.85" cy="0.85" r="0.85" transform="translate(389.183 185.488)"/><path class="e" d="M404.584,184.713V170.3a1.81,1.81,0,0,1,3.62,0v14.413l.41,3.689,3.757-5.943a2.465,2.465,0,0,1,4.1,2.6L412.714,191l-4.51,6.28"/><path class="e" d="M404.584,184.713v-8.675a1.81,1.81,0,0,0-3.62,0v8.675"/><path class="e" d="M400.963,184.712v-7.24a1.81,1.81,0,0,0-3.62,0h0v7.24"/><path class="e" d="M397.343,184.713v-5.806a1.81,1.81,0,1,0-3.62,0v17.624"/><path class="e" d="M434.1,184.713V170.3a1.81,1.81,0,0,0-3.62,0v14.413l-.41,3.689-3.757-5.943a2.459,2.459,0,0,0-4.1,2.6L425.968,191l4.508,6.284"/><path class="e" d="M434.094,184.713v-8.675a1.81,1.81,0,1,1,3.62,0h0v8.675"/><path class="e" d="M437.714,184.712v-7.24a1.81,1.81,0,0,1,3.62,0h0v7.24"/><path class="e" d="M441.266,184.713v-5.806a1.81,1.81,0,0,1,3.62,0h0v17.624"/></g></g></svg>