<svg id="グループ_1084" data-name="グループ 1084" xmlns="http://www.w3.org/2000/svg" width="1079.669" height="106.273" viewBox="0 0 1079.669 106.273">
  <rect id="長方形_389" data-name="長方形 389" width="6.714" height="6.653" transform="translate(483.199 42.856)" fill="#fff"/>
  <rect id="長方形_390" data-name="長方形 390" width="6.714" height="6.653" transform="translate(483.199 51.709)" fill="#fff"/>
  <rect id="長方形_391" data-name="長方形 391" width="6.714" height="6.653" transform="translate(483.199 60.556)" fill="#fff"/>
  <rect id="長方形_392" data-name="長方形 392" width="6.714" height="6.653" transform="translate(483.199 69.409)" fill="#fff"/>
  <rect id="長方形_393" data-name="長方形 393" width="6.714" height="6.653" transform="translate(493.915 42.856)" fill="#fff"/>
  <rect id="長方形_394" data-name="長方形 394" width="6.714" height="6.653" transform="translate(493.915 51.709)" fill="#fff"/>
  <rect id="長方形_395" data-name="長方形 395" width="6.714" height="6.653" transform="translate(493.915 60.556)" fill="#fff"/>
  <rect id="長方形_396" data-name="長方形 396" width="6.714" height="6.653" transform="translate(493.915 69.409)" fill="#fff"/>
  <rect id="長方形_397" data-name="長方形 397" width="6.714" height="6.653" transform="translate(589.762 42.856)" fill="#fff"/>
  <rect id="長方形_398" data-name="長方形 398" width="6.714" height="6.653" transform="translate(589.762 51.709)" fill="#fff"/>
  <rect id="長方形_399" data-name="長方形 399" width="6.714" height="6.653" transform="translate(589.762 60.556)" fill="#fff"/>
  <rect id="長方形_400" data-name="長方形 400" width="6.714" height="6.653" transform="translate(589.762 69.409)" fill="#fff"/>
  <rect id="長方形_401" data-name="長方形 401" width="6.714" height="6.653" transform="translate(579.046 42.856)" fill="#fff"/>
  <rect id="長方形_402" data-name="長方形 402" width="6.714" height="6.653" transform="translate(579.046 51.709)" fill="#fff"/>
  <rect id="長方形_403" data-name="長方形 403" width="6.714" height="6.653" transform="translate(579.046 60.556)" fill="#fff"/>
  <rect id="長方形_404" data-name="長方形 404" width="6.714" height="6.653" transform="translate(579.046 69.409)" fill="#fff"/>
  <path id="パス_1082" data-name="パス 1082" d="M798.241,28.271a3.651,3.651,0,1,0-3.651-3.651A3.649,3.649,0,0,0,798.241,28.271Zm-.331-3.786.216-3.212.236,3.468h-.108l-.067.182-2.342-1.019Z" transform="translate(-258.406 -6.82)" fill="#fff"/>
  <path id="パス_1083" data-name="パス 1083" d="M798.859,24.888h.1l-.229-3.468-.216,3.212-2.065-.58,2.341,1.019Z" transform="translate(-259.011 -6.966)" fill="#b1e8a7"/>
  <path id="パス_1084" data-name="パス 1084" d="M795.89,99.63h-.742a8.925,8.925,0,0,0-8.928,8.928v3.806h18.6v-3.806A8.935,8.935,0,0,0,795.89,99.63Z" transform="translate(-255.684 -32.4)" fill="#fff"/>
  <rect id="長方形_405" data-name="長方形 405" width="9.616" height="5.769" transform="translate(549.389 29.9)" fill="#fff"/>
  <rect id="長方形_406" data-name="長方形 406" width="9.616" height="5.769" transform="translate(549.389 38.814)" fill="#fff"/>
  <rect id="長方形_407" data-name="長方形 407" width="9.616" height="5.769" transform="translate(549.389 47.721)" fill="#fff"/>
  <rect id="長方形_408" data-name="長方形 408" width="9.616" height="5.769" transform="translate(549.389 56.635)" fill="#fff"/>
  <rect id="長方形_409" data-name="長方形 409" width="9.616" height="5.769" transform="translate(563.405 29.9)" fill="#fff"/>
  <rect id="長方形_410" data-name="長方形 410" width="9.616" height="5.769" transform="translate(563.405 38.814)" fill="#fff"/>
  <rect id="長方形_411" data-name="長方形 411" width="9.616" height="5.769" transform="translate(563.405 47.721)" fill="#fff"/>
  <rect id="長方形_412" data-name="長方形 412" width="9.616" height="5.769" transform="translate(563.405 56.635)" fill="#fff"/>
  <rect id="長方形_413" data-name="長方形 413" width="9.616" height="5.769" transform="translate(506.648 29.9)" fill="#fff"/>
  <rect id="長方形_414" data-name="長方形 414" width="9.616" height="5.769" transform="translate(506.648 38.814)" fill="#fff"/>
  <rect id="長方形_415" data-name="長方形 415" width="9.616" height="5.769" transform="translate(506.648 47.721)" fill="#fff"/>
  <rect id="長方形_416" data-name="長方形 416" width="9.616" height="5.769" transform="translate(506.648 56.635)" fill="#fff"/>
  <rect id="長方形_417" data-name="長方形 417" width="9.616" height="5.769" transform="translate(520.663 29.9)" fill="#fff"/>
  <rect id="長方形_418" data-name="長方形 418" width="9.616" height="5.769" transform="translate(520.663 38.814)" fill="#fff"/>
  <rect id="長方形_419" data-name="長方形 419" width="9.616" height="5.769" transform="translate(520.663 47.721)" fill="#fff"/>
  <rect id="長方形_420" data-name="長方形 420" width="9.616" height="5.769" transform="translate(520.663 56.635)" fill="#fff"/>
  <rect id="長方形_421" data-name="長方形 421" width="4.359" height="8.833" transform="translate(541.049 34.846)" fill="#fff"/>
  <rect id="長方形_422" data-name="長方形 422" width="4.359" height="8.833" transform="translate(541.049 45.09)" fill="#fff"/>
  <rect id="長方形_423" data-name="長方形 423" width="4.359" height="8.833" transform="translate(541.049 55.34)" fill="#fff"/>
  <rect id="長方形_424" data-name="長方形 424" width="4.359" height="8.833" transform="translate(534.26 34.846)" fill="#fff"/>
  <rect id="長方形_425" data-name="長方形 425" width="4.359" height="8.833" transform="translate(534.26 45.09)" fill="#fff"/>
  <rect id="長方形_426" data-name="長方形 426" width="4.359" height="8.833" transform="translate(534.26 55.34)" fill="#fff"/>
  <rect id="長方形_427" data-name="長方形 427" width="24.225" height="4.056" transform="translate(723.371 27.383)" fill="#fff"/>
  <rect id="長方形_428" data-name="長方形 428" width="24.225" height="4.056" transform="translate(723.371 34.043)" fill="#fff"/>
  <rect id="長方形_429" data-name="長方形 429" width="24.225" height="4.056" transform="translate(723.371 40.697)" fill="#fff"/>
  <rect id="長方形_430" data-name="長方形 430" width="24.225" height="4.056" transform="translate(723.371 47.357)" fill="#fff"/>
  <rect id="長方形_431" data-name="長方形 431" width="24.225" height="4.056" transform="translate(723.371 54.01)" fill="#fff"/>
  <rect id="長方形_432" data-name="長方形 432" width="24.225" height="4.056" transform="translate(723.371 60.671)" fill="#fff"/>
  <rect id="長方形_433" data-name="長方形 433" width="24.225" height="4.056" transform="translate(723.371 67.324)" fill="#fff"/>
  <rect id="長方形_434" data-name="長方形 434" width="13.28" height="4.933" transform="translate(734.316 75.03)" fill="#fff"/>
  <rect id="長方形_435" data-name="長方形 435" width="4.474" height="5.614" transform="translate(217.81 50.043)" fill="#fff"/>
  <rect id="長方形_436" data-name="長方形 436" width="4.474" height="5.614" transform="translate(225.469 50.043)" fill="#fff"/>
  <rect id="長方形_437" data-name="長方形 437" width="10.392" height="4.703" transform="translate(232.979 50.043)" fill="#fff"/>
  <rect id="長方形_438" data-name="長方形 438" width="5.459" height="15.473" transform="translate(216.676 63.464)" fill="#fff"/>
  <rect id="長方形_439" data-name="長方形 439" width="7.963" height="15.473" transform="translate(223.572 63.464)" fill="#fff"/>
  <path id="パス_1085" data-name="パス 1085" d="M350.65,110.549H357.4V94.05H350.65Zm5.54-8.077a1.059,1.059,0,1,1-1.059,1.059A1.057,1.057,0,0,1,356.19,102.471Z" transform="translate(-114.034 -30.586)" fill="#fff"/>
  <path id="パス_1086" data-name="パス 1086" d="M358.349,108.649a1.059,1.059,0,1,0-1.059-1.059A1.057,1.057,0,0,0,358.349,108.649Z" transform="translate(-116.193 -34.644)" fill="#b1e8a7"/>
  <rect id="長方形_440" data-name="長方形 440" width="5.972" height="12.49" transform="translate(658.915 65.529)" fill="#fff"/>
  <rect id="長方形_441" data-name="長方形 441" width="5.972" height="12.49" transform="translate(666.378 65.529)" fill="#fff"/>
  <rect id="長方形_442" data-name="長方形 442" width="4.008" height="12.153" transform="translate(678.875 67.81)" fill="#fff"/>
  <rect id="長方形_443" data-name="長方形 443" width="4.008" height="12.153" transform="translate(683.666 67.81)" fill="#fff"/>
  <rect id="長方形_444" data-name="長方形 444" width="4.244" height="4.244" transform="translate(671.372 54.611)" fill="#fff"/>
  <rect id="長方形_445" data-name="長方形 445" width="5.952" height="5.979" transform="translate(49.388 61.825)" fill="#fff"/>
  <rect id="長方形_446" data-name="長方形 446" width="5.952" height="5.979" transform="translate(56.217 61.825)" fill="#fff"/>
  <rect id="長方形_447" data-name="長方形 447" width="5.952" height="5.979" transform="translate(49.388 68.674)" fill="#fff"/>
  <rect id="長方形_448" data-name="長方形 448" width="5.952" height="5.979" transform="translate(56.217 68.674)" fill="#fff"/>
  <rect id="長方形_449" data-name="長方形 449" width="8.509" height="8.509" transform="translate(987.276 57.661)" fill="#fff"/>
  <rect id="長方形_450" data-name="長方形 450" width="8.509" height="8.509" transform="translate(1002.965 57.708)" fill="#fff"/>
  <rect id="長方形_451" data-name="長方形 451" width="8.509" height="8.509" transform="translate(1018.654 57.708)" fill="#fff"/>
  <rect id="長方形_452" data-name="長方形 452" width="4.798" height="12.22" transform="translate(965.946 8.597)" fill="#fff"/>
  <rect id="長方形_453" data-name="長方形 453" width="4.798" height="12.22" transform="translate(953.206 8.597)" fill="#fff"/>
  <rect id="長方形_454" data-name="長方形 454" width="4.798" height="12.22" transform="translate(965.946 23.139)" fill="#fff"/>
  <rect id="長方形_455" data-name="長方形 455" width="4.798" height="12.22" transform="translate(953.206 23.139)" fill="#fff"/>
  <rect id="長方形_456" data-name="長方形 456" width="4.798" height="12.22" transform="translate(965.946 37.687)" fill="#fff"/>
  <rect id="長方形_457" data-name="長方形 457" width="4.798" height="12.22" transform="translate(953.206 37.687)" fill="#fff"/>
  <rect id="長方形_458" data-name="長方形 458" width="5.061" height="5.196" transform="translate(378.019 37.937)" fill="#fff"/>
  <rect id="長方形_459" data-name="長方形 459" width="5.061" height="5.196" transform="translate(367.809 37.937)" fill="#fff"/>
  <rect id="長方形_460" data-name="長方形 460" width="5.061" height="5.196" transform="translate(378.019 44.921)" fill="#fff"/>
  <rect id="長方形_461" data-name="長方形 461" width="5.061" height="5.196" transform="translate(367.809 44.921)" fill="#fff"/>
  <rect id="長方形_462" data-name="長方形 462" width="5.061" height="5.196" transform="translate(378.019 51.905)" fill="#fff"/>
  <rect id="長方形_463" data-name="長方形 463" width="5.061" height="5.196" transform="translate(367.809 51.905)" fill="#fff"/>
  <rect id="長方形_464" data-name="長方形 464" width="5.061" height="5.196" transform="translate(378.019 58.896)" fill="#fff"/>
  <rect id="長方形_465" data-name="長方形 465" width="5.061" height="5.196" transform="translate(367.809 58.896)" fill="#fff"/>
  <rect id="長方形_466" data-name="長方形 466" width="5.061" height="5.196" transform="translate(378.019 65.88)" fill="#fff"/>
  <rect id="長方形_467" data-name="長方形 467" width="5.061" height="5.196" transform="translate(367.809 65.88)" fill="#fff"/>
  <rect id="長方形_468" data-name="長方形 468" width="2.848" height="2.719" transform="translate(331.424 57.762)" fill="#fff"/>
  <rect id="長方形_469" data-name="長方形 469" width="2.848" height="2.719" transform="translate(338.159 57.762)" fill="#fff"/>
  <rect id="長方形_470" data-name="長方形 470" width="2.848" height="2.719" transform="translate(344.893 57.762)" fill="#fff"/>
  <rect id="長方形_471" data-name="長方形 471" width="2.848" height="2.719" transform="translate(331.424 66.312)" fill="#fff"/>
  <rect id="長方形_472" data-name="長方形 472" width="2.848" height="2.719" transform="translate(338.159 66.312)" fill="#fff"/>
  <rect id="長方形_473" data-name="長方形 473" width="2.848" height="2.719" transform="translate(344.893 66.312)" fill="#fff"/>
  <rect id="長方形_474" data-name="長方形 474" width="6.545" height="9.744" transform="translate(134.736 45.009)" fill="#fff"/>
  <rect id="長方形_475" data-name="長方形 475" width="6.545" height="9.744" transform="translate(145.91 45.009)" fill="#fff"/>
  <rect id="長方形_476" data-name="長方形 476" width="6.545" height="9.744" transform="translate(134.736 61.453)" fill="#fff"/>
  <path id="パス_1087" data-name="パス 1087" d="M216.23,109.58h6.545V91.07H216.23Zm1.12-10.2h.958v4.474h-.958Z" transform="translate(-70.32 -29.617)" fill="#fff"/>
  <rect id="長方形_477" data-name="長方形 477" width="0.958" height="4.474" transform="translate(147.031 69.76)" fill="#b1e8a7"/>
  <path id="パス_1088" data-name="パス 1088" d="M215.188,58.544a3.914,3.914,0,0,0-7.828,0v1.835h7.828Z" transform="translate(-67.435 -17.766)" fill="#fff"/>
  <path id="パス_1089" data-name="パス 1089" d="M410.6,23.93a2.186,2.186,0,1,0,2.186,2.186A2.186,2.186,0,0,0,410.6,23.93Z" transform="translate(-132.818 -7.782)" fill="#c3bfbf"/>
  <path id="パス_1090" data-name="パス 1090" d="M409.744,18.34A4.038,4.038,0,0,0,405.83,21.5h7.855A4.023,4.023,0,0,0,409.744,18.34Z" transform="translate(-131.979 -5.964)" fill="#c3bfbf"/>
  <path id="パス_1091" data-name="パス 1091" d="M435.3,23.93a2.186,2.186,0,1,0,2.186,2.186A2.186,2.186,0,0,0,435.3,23.93Z" transform="translate(-140.85 -7.782)" fill="#c3bfbf"/>
  <path id="パス_1092" data-name="パス 1092" d="M434.434,18.34A4.038,4.038,0,0,0,430.52,21.5h7.855A4.023,4.023,0,0,0,434.434,18.34Z" transform="translate(-140.008 -5.964)" fill="#c3bfbf"/>
  <path id="パス_1093" data-name="パス 1093" d="M429.91,23.591a.1.1,0,1,0,.1-.1A.1.1,0,0,0,429.91,23.591Z" transform="translate(-139.81 -7.639)" fill="#b1e8a7"/>
  <path id="パス_1094" data-name="パス 1094" d="M430.51,36.191a.1.1,0,1,0,.1-.1A.1.1,0,0,0,430.51,36.191Z" transform="translate(-140.005 -11.737)" fill="#b1e8a7"/>
  <path id="パス_1095" data-name="パス 1095" d="M429.53,35.191a.1.1,0,1,0,.1-.1A.1.1,0,0,0,429.53,35.191Z" transform="translate(-139.686 -11.412)" fill="#b1e8a7"/>
  <path id="パス_1096" data-name="パス 1096" d="M429.02,24.691a.1.1,0,1,0,.1-.1A.1.1,0,0,0,429.02,24.691Z" transform="translate(-139.52 -7.997)" fill="#b1e8a7"/>
  <path id="パス_1097" data-name="パス 1097" d="M432.9,37.681a.1.1,0,1,0,.1-.1A.1.1,0,0,0,432.9,37.681Z" transform="translate(-140.782 -12.221)" fill="#b1e8a7"/>
  <path id="パス_1098" data-name="パス 1098" d="M431.65,37.031a.1.1,0,1,0,.1-.1A.1.1,0,0,0,431.65,37.031Z" transform="translate(-140.376 -12.01)" fill="#b1e8a7"/>
  <path id="パス_1099" data-name="パス 1099" d="M444.852,27.091a.1.1,0,1,0-.1.1A.1.1,0,0,0,444.852,27.091Z" transform="translate(-144.603 -8.777)" fill="#b1e8a7"/>
  <path id="パス_1100" data-name="パス 1100" d="M434.24,38.111a.1.1,0,1,0,.1-.1A.1.1,0,0,0,434.24,38.111Z" transform="translate(-141.218 -12.361)" fill="#b1e8a7"/>
  <path id="パス_1101" data-name="パス 1101" d="M444.241,25.882a.1.1,0,1,0-.1-.1A.1.1,0,0,0,444.241,25.882Z" transform="translate(-144.438 -8.351)" fill="#b1e8a7"/>
  <path id="パス_1102" data-name="パス 1102" d="M428.72,34.031a.1.1,0,1,0,.1-.1A.1.1,0,0,0,428.72,34.031Z" transform="translate(-139.423 -11.034)" fill="#b1e8a7"/>
  <path id="パス_1103" data-name="パス 1103" d="M428.532,25.911a.1.1,0,1,0-.1.1A.1.1,0,0,0,428.532,25.911Z" transform="translate(-139.296 -8.394)" fill="#b1e8a7"/>
  <path id="パス_1104" data-name="パス 1104" d="M445.041,28.572a.1.1,0,1,0-.1-.1A.1.1,0,0,0,445.041,28.572Z" transform="translate(-144.698 -9.226)" fill="#b1e8a7"/>
  <path id="パス_1105" data-name="パス 1105" d="M427.811,31.522a.1.1,0,1,0-.1-.1A.1.1,0,0,0,427.811,31.522Z" transform="translate(-139.094 -10.185)" fill="#b1e8a7"/>
  <path id="パス_1106" data-name="パス 1106" d="M428.211,32.872a.1.1,0,1,0-.1-.1A.1.1,0,0,0,428.211,32.872Z" transform="translate(-139.224 -10.625)" fill="#b1e8a7"/>
  <path id="パス_1107" data-name="パス 1107" d="M427.772,28.621a.1.1,0,1,0-.1.1A.1.1,0,0,0,427.772,28.621Z" transform="translate(-139.049 -9.275)" fill="#b1e8a7"/>
  <path id="パス_1108" data-name="パス 1108" d="M428.042,27.241a.1.1,0,1,0-.1.1A.1.1,0,0,0,428.042,27.241Z" transform="translate(-139.137 -8.826)" fill="#b1e8a7"/>
  <path id="パス_1109" data-name="パス 1109" d="M427.53,30.021a.1.1,0,1,0,.1-.1A.1.1,0,0,0,427.53,30.021Z" transform="translate(-139.036 -9.73)" fill="#b1e8a7"/>
  <path id="パス_1110" data-name="パス 1110" d="M442.52,23.481a.1.1,0,1,0,.1-.1A.1.1,0,0,0,442.52,23.481Z" transform="translate(-143.911 -7.603)" fill="#b1e8a7"/>
  <path id="パス_1111" data-name="パス 1111" d="M443.42,24.571a.1.1,0,1,0,.1-.1A.1.1,0,0,0,443.42,24.571Z" transform="translate(-144.203 -7.958)" fill="#b1e8a7"/>
  <path id="パス_1112" data-name="パス 1112" d="M443.08,35.081a.1.1,0,1,0,.1-.1A.1.1,0,0,0,443.08,35.081Z" transform="translate(-144.093 -11.376)" fill="#b1e8a7"/>
  <path id="パス_1113" data-name="パス 1113" d="M442.211,36.212a.1.1,0,1,0-.1-.1A.1.1,0,0,0,442.211,36.212Z" transform="translate(-143.777 -11.711)" fill="#b1e8a7"/>
  <path id="パス_1114" data-name="パス 1114" d="M444.951,31.392a.1.1,0,1,0-.1-.1A.1.1,0,0,0,444.951,31.392Z" transform="translate(-144.668 -10.143)" fill="#b1e8a7"/>
  <path id="パス_1115" data-name="パス 1115" d="M443.981,33.82a.1.1,0,1,0,.1.1A.1.1,0,0,0,443.981,33.82Z" transform="translate(-144.353 -10.999)" fill="#b1e8a7"/>
  <path id="パス_1116" data-name="パス 1116" d="M445.212,29.881a.1.1,0,1,0-.1.1A.1.1,0,0,0,445.212,29.881Z" transform="translate(-144.72 -9.685)" fill="#b1e8a7"/>
  <path id="パス_1117" data-name="パス 1117" d="M444.47,32.641a.1.1,0,1,0,.1-.1A.1.1,0,0,0,444.47,32.641Z" transform="translate(-144.545 -10.582)" fill="#b1e8a7"/>
  <path id="パス_1118" data-name="パス 1118" d="M441,36.961a.1.1,0,1,0,.1-.1A.1.1,0,0,0,441,36.961Z" transform="translate(-143.416 -11.987)" fill="#b1e8a7"/>
  <path id="パス_1119" data-name="パス 1119" d="M435.63,38.331a.1.1,0,1,0,.1-.1A.1.1,0,0,0,435.63,38.331Z" transform="translate(-141.67 -12.433)" fill="#b1e8a7"/>
  <path id="パス_1120" data-name="パス 1120" d="M437.04,38.321a.1.1,0,1,0,.1-.1A.1.1,0,0,0,437.04,38.321Z" transform="translate(-142.129 -12.429)" fill="#b1e8a7"/>
  <path id="パス_1121" data-name="パス 1121" d="M438.42,38.081a.1.1,0,1,0,.1-.1A.1.1,0,0,0,438.42,38.081Z" transform="translate(-142.577 -12.351)" fill="#b1e8a7"/>
  <path id="パス_1122" data-name="パス 1122" d="M439.76,37.631a.1.1,0,1,0,.1-.1A.1.1,0,0,0,439.76,37.631Z" transform="translate(-143.013 -12.205)" fill="#b1e8a7"/>
  <path id="パス_1123" data-name="パス 1123" d="M405.412,23.591a.1.1,0,1,0-.1.1A.1.1,0,0,0,405.412,23.591Z" transform="translate(-131.777 -7.639)" fill="#b1e8a7"/>
  <path id="パス_1124" data-name="パス 1124" d="M405.911,36.292a.1.1,0,1,0-.1-.1A.1.1,0,0,0,405.911,36.292Z" transform="translate(-131.972 -11.737)" fill="#b1e8a7"/>
  <path id="パス_1125" data-name="パス 1125" d="M405.033,35.191a.1.1,0,1,0-.1.1A.1.1,0,0,0,405.033,35.191Z" transform="translate(-131.654 -11.412)" fill="#b1e8a7"/>
  <path id="パス_1126" data-name="パス 1126" d="M404.522,24.691a.1.1,0,1,0-.1.1A.1.1,0,0,0,404.522,24.691Z" transform="translate(-131.488 -7.997)" fill="#b1e8a7"/>
  <path id="パス_1127" data-name="パス 1127" d="M408.2,37.681a.1.1,0,1,0,.1-.1A.1.1,0,0,0,408.2,37.681Z" transform="translate(-132.75 -12.221)" fill="#b1e8a7"/>
  <path id="パス_1128" data-name="パス 1128" d="M406.95,37.031a.1.1,0,1,0,.1-.1A.1.1,0,0,0,406.95,37.031Z" transform="translate(-132.343 -12.01)" fill="#b1e8a7"/>
  <path id="パス_1129" data-name="パス 1129" d="M420.051,26.99a.1.1,0,1,0,.1.1A.1.1,0,0,0,420.051,26.99Z" transform="translate(-136.571 -8.777)" fill="#b1e8a7"/>
  <path id="パス_1130" data-name="パス 1130" d="M409.54,38.111a.1.1,0,1,0,.1-.1A.1.1,0,0,0,409.54,38.111Z" transform="translate(-133.185 -12.361)" fill="#b1e8a7"/>
  <path id="パス_1131" data-name="パス 1131" d="M419.541,25.882a.1.1,0,1,0-.1-.1A.1.1,0,0,0,419.541,25.882Z" transform="translate(-136.405 -8.351)" fill="#b1e8a7"/>
  <path id="パス_1132" data-name="パス 1132" d="M404.222,34.031a.1.1,0,1,0-.1.1A.1.1,0,0,0,404.222,34.031Z" transform="translate(-131.39 -11.034)" fill="#b1e8a7"/>
  <path id="パス_1133" data-name="パス 1133" d="M403.731,26.012a.1.1,0,1,0-.1-.1A.1.1,0,0,0,403.731,26.012Z" transform="translate(-131.263 -8.394)" fill="#b1e8a7"/>
  <path id="パス_1134" data-name="パス 1134" d="M420.341,28.37a.1.1,0,1,0,.1.1A.1.1,0,0,0,420.341,28.37Z" transform="translate(-136.665 -9.226)" fill="#b1e8a7"/>
  <path id="パス_1135" data-name="パス 1135" d="M403.111,31.32a.1.1,0,1,0,.1.1A.1.1,0,0,0,403.111,31.32Z" transform="translate(-131.062 -10.185)" fill="#b1e8a7"/>
  <path id="パス_1136" data-name="パス 1136" d="M403.41,32.771a.1.1,0,1,0,.1-.1A.1.1,0,0,0,403.41,32.771Z" transform="translate(-131.192 -10.625)" fill="#b1e8a7"/>
  <path id="パス_1137" data-name="パス 1137" d="M402.971,28.52a.1.1,0,1,0,.1.1A.1.1,0,0,0,402.971,28.52Z" transform="translate(-131.016 -9.275)" fill="#b1e8a7"/>
  <path id="パス_1138" data-name="パス 1138" d="M403.241,27.14a.1.1,0,1,0,.1.1A.1.1,0,0,0,403.241,27.14Z" transform="translate(-131.104 -8.826)" fill="#b1e8a7"/>
  <path id="パス_1139" data-name="パス 1139" d="M402.83,30.021a.1.1,0,1,0,.1-.1A.1.1,0,0,0,402.83,30.021Z" transform="translate(-131.003 -9.73)" fill="#b1e8a7"/>
  <path id="パス_1140" data-name="パス 1140" d="M418.022,23.481a.1.1,0,1,0-.1.1A.1.1,0,0,0,418.022,23.481Z" transform="translate(-135.878 -7.603)" fill="#b1e8a7"/>
  <path id="パス_1141" data-name="パス 1141" d="M418.922,24.571a.1.1,0,1,0-.1.1A.1.1,0,0,0,418.922,24.571Z" transform="translate(-136.171 -7.958)" fill="#b1e8a7"/>
  <path id="パス_1142" data-name="パス 1142" d="M418.582,35.081a.1.1,0,1,0-.1.1A.1.1,0,0,0,418.582,35.081Z" transform="translate(-136.06 -11.376)" fill="#b1e8a7"/>
  <path id="パス_1143" data-name="パス 1143" d="M417.511,36.212a.1.1,0,1,0-.1-.1A.1.1,0,0,0,417.511,36.212Z" transform="translate(-135.745 -11.711)" fill="#b1e8a7"/>
  <path id="パス_1144" data-name="パス 1144" d="M420.15,31.291a.1.1,0,1,0,.1-.1A.1.1,0,0,0,420.15,31.291Z" transform="translate(-136.636 -10.143)" fill="#b1e8a7"/>
  <path id="パス_1145" data-name="パス 1145" d="M419.281,33.82a.1.1,0,1,0,.1.1A.1.1,0,0,0,419.281,33.82Z" transform="translate(-136.32 -10.999)" fill="#b1e8a7"/>
  <path id="パス_1146" data-name="パス 1146" d="M420.512,29.881a.1.1,0,1,0-.1.1A.1.1,0,0,0,420.512,29.881Z" transform="translate(-136.688 -9.685)" fill="#b1e8a7"/>
  <path id="パス_1147" data-name="パス 1147" d="M419.77,32.641a.1.1,0,1,0,.1-.1A.1.1,0,0,0,419.77,32.641Z" transform="translate(-136.512 -10.582)" fill="#b1e8a7"/>
  <path id="パス_1148" data-name="パス 1148" d="M416.3,36.961a.1.1,0,1,0,.1-.1A.1.1,0,0,0,416.3,36.961Z" transform="translate(-135.384 -11.987)" fill="#b1e8a7"/>
  <path id="パス_1149" data-name="パス 1149" d="M410.93,38.331a.1.1,0,1,0,.1-.1A.1.1,0,0,0,410.93,38.331Z" transform="translate(-133.637 -12.433)" fill="#b1e8a7"/>
  <path id="パス_1150" data-name="パス 1150" d="M412.34,38.321a.1.1,0,1,0,.1-.1A.1.1,0,0,0,412.34,38.321Z" transform="translate(-134.096 -12.429)" fill="#b1e8a7"/>
  <path id="パス_1151" data-name="パス 1151" d="M413.72,38.081a.1.1,0,1,0,.1-.1A.1.1,0,0,0,413.72,38.081Z" transform="translate(-134.545 -12.351)" fill="#b1e8a7"/>
  <path id="パス_1152" data-name="パス 1152" d="M415.06,37.631a.1.1,0,1,0,.1-.1A.1.1,0,0,0,415.06,37.631Z" transform="translate(-134.98 -12.205)" fill="#b1e8a7"/>
  <path id="パス_1153" data-name="パス 1153" d="M942.1,23.93a2.186,2.186,0,1,0,2.186,2.186A2.186,2.186,0,0,0,942.1,23.93Z" transform="translate(-305.666 -7.782)" fill="#c3bfbf"/>
  <path id="パス_1154" data-name="パス 1154" d="M941.244,18.34A4.038,4.038,0,0,0,937.33,21.5h7.855A4.023,4.023,0,0,0,941.244,18.34Z" transform="translate(-304.826 -5.964)" fill="#c3bfbf"/>
  <path id="パス_1155" data-name="パス 1155" d="M966.8,23.93a2.186,2.186,0,1,0,2.186,2.186A2.186,2.186,0,0,0,966.8,23.93Z" transform="translate(-313.698 -7.782)" fill="#c3bfbf"/>
  <path id="パス_1156" data-name="パス 1156" d="M965.934,18.34A4.038,4.038,0,0,0,962.02,21.5h7.855A4.023,4.023,0,0,0,965.934,18.34Z" transform="translate(-312.856 -5.964)" fill="#c3bfbf"/>
  <path id="パス_1157" data-name="パス 1157" d="M961.41,23.591a.1.1,0,1,0,.1-.1A.1.1,0,0,0,961.41,23.591Z" transform="translate(-312.657 -7.639)" fill="#b1e8a7"/>
  <path id="パス_1158" data-name="パス 1158" d="M962.01,36.191a.1.1,0,1,0,.1-.1A.1.1,0,0,0,962.01,36.191Z" transform="translate(-312.853 -11.737)" fill="#b1e8a7"/>
  <path id="パス_1159" data-name="パス 1159" d="M961.03,35.191a.1.1,0,1,0,.1-.1A.1.1,0,0,0,961.03,35.191Z" transform="translate(-312.534 -11.412)" fill="#b1e8a7"/>
  <path id="パス_1160" data-name="パス 1160" d="M960.52,24.691a.1.1,0,1,0,.1-.1A.1.1,0,0,0,960.52,24.691Z" transform="translate(-312.368 -7.997)" fill="#b1e8a7"/>
  <path id="パス_1161" data-name="パス 1161" d="M964.4,37.681a.1.1,0,1,0,.1-.1A.1.1,0,0,0,964.4,37.681Z" transform="translate(-313.63 -12.221)" fill="#b1e8a7"/>
  <path id="パス_1162" data-name="パス 1162" d="M963.15,37.031a.1.1,0,1,0,.1-.1A.1.1,0,0,0,963.15,37.031Z" transform="translate(-313.223 -12.01)" fill="#b1e8a7"/>
  <path id="パス_1163" data-name="パス 1163" d="M976.352,27.091a.1.1,0,1,0-.1.1A.1.1,0,0,0,976.352,27.091Z" transform="translate(-317.451 -8.777)" fill="#b1e8a7"/>
  <path id="パス_1164" data-name="パス 1164" d="M965.74,38.111a.1.1,0,1,0,.1-.1A.1.1,0,0,0,965.74,38.111Z" transform="translate(-314.066 -12.361)" fill="#b1e8a7"/>
  <path id="パス_1165" data-name="パス 1165" d="M975.741,25.882a.1.1,0,1,0-.1-.1A.1.1,0,0,0,975.741,25.882Z" transform="translate(-317.285 -8.351)" fill="#b1e8a7"/>
  <path id="パス_1166" data-name="パス 1166" d="M960.22,34.031a.1.1,0,1,0,.1-.1A.1.1,0,0,0,960.22,34.031Z" transform="translate(-312.271 -11.034)" fill="#b1e8a7"/>
  <path id="パス_1167" data-name="パス 1167" d="M960.032,25.911a.1.1,0,1,0-.1.1A.1.1,0,0,0,960.032,25.911Z" transform="translate(-312.144 -8.394)" fill="#b1e8a7"/>
  <path id="パス_1168" data-name="パス 1168" d="M976.541,28.572a.1.1,0,1,0-.1-.1A.1.1,0,0,0,976.541,28.572Z" transform="translate(-317.545 -9.226)" fill="#b1e8a7"/>
  <path id="パス_1169" data-name="パス 1169" d="M959.311,31.522a.1.1,0,1,0-.1-.1A.1.1,0,0,0,959.311,31.522Z" transform="translate(-311.942 -10.185)" fill="#b1e8a7"/>
  <path id="パス_1170" data-name="パス 1170" d="M959.711,32.872a.1.1,0,1,0-.1-.1A.1.1,0,0,0,959.711,32.872Z" transform="translate(-312.072 -10.625)" fill="#b1e8a7"/>
  <path id="パス_1171" data-name="パス 1171" d="M959.273,28.621a.1.1,0,1,0-.1.1A.1.1,0,0,0,959.273,28.621Z" transform="translate(-311.897 -9.275)" fill="#b1e8a7"/>
  <path id="パス_1172" data-name="パス 1172" d="M959.542,27.241a.1.1,0,1,0-.1.1A.1.1,0,0,0,959.542,27.241Z" transform="translate(-311.984 -8.826)" fill="#b1e8a7"/>
  <path id="パス_1173" data-name="パス 1173" d="M959.03,30.021a.1.1,0,1,0,.1-.1A.1.1,0,0,0,959.03,30.021Z" transform="translate(-311.883 -9.73)" fill="#b1e8a7"/>
  <path id="パス_1174" data-name="パス 1174" d="M974.02,23.481a.1.1,0,1,0,.1-.1A.1.1,0,0,0,974.02,23.481Z" transform="translate(-316.758 -7.603)" fill="#b1e8a7"/>
  <path id="パス_1175" data-name="パス 1175" d="M974.92,24.571a.1.1,0,1,0,.1-.1A.1.1,0,0,0,974.92,24.571Z" transform="translate(-317.051 -7.958)" fill="#b1e8a7"/>
  <path id="パス_1176" data-name="パス 1176" d="M974.58,35.081a.1.1,0,1,0,.1-.1A.1.1,0,0,0,974.58,35.081Z" transform="translate(-316.94 -11.376)" fill="#b1e8a7"/>
  <path id="パス_1177" data-name="パス 1177" d="M973.711,36.212a.1.1,0,1,0-.1-.1A.1.1,0,0,0,973.711,36.212Z" transform="translate(-316.625 -11.711)" fill="#b1e8a7"/>
  <path id="パス_1178" data-name="パス 1178" d="M976.451,31.392a.1.1,0,1,0-.1-.1A.1.1,0,0,0,976.451,31.392Z" transform="translate(-317.516 -10.143)" fill="#b1e8a7"/>
  <path id="パス_1179" data-name="パス 1179" d="M975.481,33.82a.1.1,0,1,0,.1.1A.1.1,0,0,0,975.481,33.82Z" transform="translate(-317.201 -10.999)" fill="#b1e8a7"/>
  <path id="パス_1180" data-name="パス 1180" d="M976.712,29.881a.1.1,0,1,0-.1.1A.1.1,0,0,0,976.712,29.881Z" transform="translate(-317.568 -9.685)" fill="#b1e8a7"/>
  <path id="パス_1181" data-name="パス 1181" d="M975.97,32.641a.1.1,0,1,0,.1-.1A.1.1,0,0,0,975.97,32.641Z" transform="translate(-317.392 -10.582)" fill="#b1e8a7"/>
  <path id="パス_1182" data-name="パス 1182" d="M972.5,36.961a.1.1,0,1,0,.1-.1A.1.1,0,0,0,972.5,36.961Z" transform="translate(-316.264 -11.987)" fill="#b1e8a7"/>
  <path id="パス_1183" data-name="パス 1183" d="M967.13,38.331a.1.1,0,1,0,.1-.1A.1.1,0,0,0,967.13,38.331Z" transform="translate(-314.518 -12.433)" fill="#b1e8a7"/>
  <path id="パス_1184" data-name="パス 1184" d="M968.54,38.321a.1.1,0,1,0,.1-.1A.1.1,0,0,0,968.54,38.321Z" transform="translate(-314.976 -12.429)" fill="#b1e8a7"/>
  <path id="パス_1185" data-name="パス 1185" d="M969.92,38.081a.1.1,0,1,0,.1-.1A.1.1,0,0,0,969.92,38.081Z" transform="translate(-315.425 -12.351)" fill="#b1e8a7"/>
  <path id="パス_1186" data-name="パス 1186" d="M971.26,37.631a.1.1,0,1,0,.1-.1A.1.1,0,0,0,971.26,37.631Z" transform="translate(-315.861 -12.205)" fill="#b1e8a7"/>
  <path id="パス_1187" data-name="パス 1187" d="M936.912,23.591a.1.1,0,1,0-.1.1A.1.1,0,0,0,936.912,23.591Z" transform="translate(-304.625 -7.639)" fill="#b1e8a7"/>
  <path id="パス_1188" data-name="パス 1188" d="M937.411,36.292a.1.1,0,1,0-.1-.1A.1.1,0,0,0,937.411,36.292Z" transform="translate(-304.82 -11.737)" fill="#b1e8a7"/>
  <path id="パス_1189" data-name="パス 1189" d="M936.532,35.191a.1.1,0,1,0-.1.1A.1.1,0,0,0,936.532,35.191Z" transform="translate(-304.501 -11.412)" fill="#b1e8a7"/>
  <path id="パス_1190" data-name="パス 1190" d="M936.022,24.691a.1.1,0,1,0-.1.1A.1.1,0,0,0,936.022,24.691Z" transform="translate(-304.335 -7.997)" fill="#b1e8a7"/>
  <path id="パス_1191" data-name="パス 1191" d="M939.7,37.681a.1.1,0,1,0,.1-.1A.1.1,0,0,0,939.7,37.681Z" transform="translate(-305.597 -12.221)" fill="#b1e8a7"/>
  <path id="パス_1192" data-name="パス 1192" d="M938.45,37.031a.1.1,0,1,0,.1-.1A.1.1,0,0,0,938.45,37.031Z" transform="translate(-305.191 -12.01)" fill="#b1e8a7"/>
  <path id="パス_1193" data-name="パス 1193" d="M951.551,26.99a.1.1,0,1,0,.1.1A.1.1,0,0,0,951.551,26.99Z" transform="translate(-309.418 -8.777)" fill="#b1e8a7"/>
  <path id="パス_1194" data-name="パス 1194" d="M941.04,38.111a.1.1,0,1,0,.1-.1A.1.1,0,0,0,941.04,38.111Z" transform="translate(-306.033 -12.361)" fill="#b1e8a7"/>
  <path id="パス_1195" data-name="パス 1195" d="M951.041,25.882a.1.1,0,1,0-.1-.1A.1.1,0,0,0,951.041,25.882Z" transform="translate(-309.253 -8.351)" fill="#b1e8a7"/>
  <path id="パス_1196" data-name="パス 1196" d="M935.722,34.031a.1.1,0,1,0-.1.1A.1.1,0,0,0,935.722,34.031Z" transform="translate(-304.238 -11.034)" fill="#b1e8a7"/>
  <path id="パス_1197" data-name="パス 1197" d="M935.231,26.012a.1.1,0,1,0-.1-.1A.1.1,0,0,0,935.231,26.012Z" transform="translate(-304.111 -8.394)" fill="#b1e8a7"/>
  <path id="パス_1198" data-name="パス 1198" d="M951.841,28.37a.1.1,0,1,0,.1.1A.1.1,0,0,0,951.841,28.37Z" transform="translate(-309.513 -9.226)" fill="#b1e8a7"/>
  <path id="パス_1199" data-name="パス 1199" d="M934.611,31.32a.1.1,0,1,0,.1.1A.1.1,0,0,0,934.611,31.32Z" transform="translate(-303.909 -10.185)" fill="#b1e8a7"/>
  <path id="パス_1200" data-name="パス 1200" d="M934.91,32.771a.1.1,0,1,0,.1-.1A.1.1,0,0,0,934.91,32.771Z" transform="translate(-304.039 -10.625)" fill="#b1e8a7"/>
  <path id="パス_1201" data-name="パス 1201" d="M934.471,28.52a.1.1,0,1,0,.1.1A.1.1,0,0,0,934.471,28.52Z" transform="translate(-303.864 -9.275)" fill="#b1e8a7"/>
  <path id="パス_1202" data-name="パス 1202" d="M934.741,27.14a.1.1,0,1,0,.1.1A.1.1,0,0,0,934.741,27.14Z" transform="translate(-303.952 -8.826)" fill="#b1e8a7"/>
  <path id="パス_1203" data-name="パス 1203" d="M934.33,30.021a.1.1,0,1,0,.1-.1A.1.1,0,0,0,934.33,30.021Z" transform="translate(-303.851 -9.73)" fill="#b1e8a7"/>
  <path id="パス_1204" data-name="パス 1204" d="M949.523,23.481a.1.1,0,1,0-.1.1A.1.1,0,0,0,949.523,23.481Z" transform="translate(-308.726 -7.603)" fill="#b1e8a7"/>
  <path id="パス_1205" data-name="パス 1205" d="M950.422,24.571a.1.1,0,1,0-.1.1A.1.1,0,0,0,950.422,24.571Z" transform="translate(-309.018 -7.958)" fill="#b1e8a7"/>
  <path id="パス_1206" data-name="パス 1206" d="M950.082,35.081a.1.1,0,1,0-.1.1A.1.1,0,0,0,950.082,35.081Z" transform="translate(-308.908 -11.376)" fill="#b1e8a7"/>
  <path id="パス_1207" data-name="パス 1207" d="M949.011,36.212a.1.1,0,1,0-.1-.1A.1.1,0,0,0,949.011,36.212Z" transform="translate(-308.592 -11.711)" fill="#b1e8a7"/>
  <path id="パス_1208" data-name="パス 1208" d="M951.65,31.291a.1.1,0,1,0,.1-.1A.1.1,0,0,0,951.65,31.291Z" transform="translate(-309.483 -10.143)" fill="#b1e8a7"/>
  <path id="パス_1209" data-name="パス 1209" d="M950.781,33.82a.1.1,0,1,0,.1.1A.1.1,0,0,0,950.781,33.82Z" transform="translate(-309.168 -10.999)" fill="#b1e8a7"/>
  <path id="パス_1210" data-name="パス 1210" d="M952.013,29.881a.1.1,0,1,0-.1.1A.1.1,0,0,0,952.013,29.881Z" transform="translate(-309.535 -9.685)" fill="#b1e8a7"/>
  <path id="パス_1211" data-name="パス 1211" d="M951.27,32.641a.1.1,0,1,0,.1-.1A.1.1,0,0,0,951.27,32.641Z" transform="translate(-309.36 -10.582)" fill="#b1e8a7"/>
  <path id="パス_1212" data-name="パス 1212" d="M947.8,36.961a.1.1,0,1,0,.1-.1A.1.1,0,0,0,947.8,36.961Z" transform="translate(-308.231 -11.987)" fill="#b1e8a7"/>
  <path id="パス_1213" data-name="パス 1213" d="M942.43,38.331a.1.1,0,1,0,.1-.1A.1.1,0,0,0,942.43,38.331Z" transform="translate(-306.485 -12.433)" fill="#b1e8a7"/>
  <path id="パス_1214" data-name="パス 1214" d="M943.84,38.321a.1.1,0,1,0,.1-.1A.1.1,0,0,0,943.84,38.321Z" transform="translate(-306.944 -12.429)" fill="#b1e8a7"/>
  <path id="パス_1215" data-name="パス 1215" d="M945.22,38.081a.1.1,0,1,0,.1-.1A.1.1,0,0,0,945.22,38.081Z" transform="translate(-307.392 -12.351)" fill="#b1e8a7"/>
  <path id="パス_1216" data-name="パス 1216" d="M946.56,37.631a.1.1,0,1,0,.1-.1A.1.1,0,0,0,946.56,37.631Z" transform="translate(-307.828 -12.205)" fill="#b1e8a7"/>
  <path id="パス_1217" data-name="パス 1217" d="M1329.6,23.93a2.186,2.186,0,1,0,2.186,2.186A2.186,2.186,0,0,0,1329.6,23.93Z" transform="translate(-431.683 -7.782)" fill="#c3bfbf"/>
  <path id="パス_1218" data-name="パス 1218" d="M1328.744,18.34a4.038,4.038,0,0,0-3.914,3.165h7.854A4.023,4.023,0,0,0,1328.744,18.34Z" transform="translate(-430.844 -5.964)" fill="#c3bfbf"/>
  <path id="パス_1219" data-name="パス 1219" d="M1354.3,23.93a2.186,2.186,0,1,0,2.186,2.186A2.186,2.186,0,0,0,1354.3,23.93Z" transform="translate(-439.716 -7.782)" fill="#c3bfbf"/>
  <path id="パス_1220" data-name="パス 1220" d="M1353.434,18.34a4.038,4.038,0,0,0-3.914,3.165h7.854A4.023,4.023,0,0,0,1353.434,18.34Z" transform="translate(-438.874 -5.964)" fill="#c3bfbf"/>
  <path id="パス_1221" data-name="パス 1221" d="M1348.91,23.591a.1.1,0,1,0,.1-.1A.1.1,0,0,0,1348.91,23.591Z" transform="translate(-438.675 -7.639)" fill="#b1e8a7"/>
  <path id="パス_1222" data-name="パス 1222" d="M1349.51,36.191a.1.1,0,1,0,.1-.1A.1.1,0,0,0,1349.51,36.191Z" transform="translate(-438.87 -11.737)" fill="#b1e8a7"/>
  <path id="パス_1223" data-name="パス 1223" d="M1348.53,35.191a.1.1,0,1,0,.1-.1A.1.1,0,0,0,1348.53,35.191Z" transform="translate(-438.552 -11.412)" fill="#b1e8a7"/>
  <path id="パス_1224" data-name="パス 1224" d="M1348.02,24.691a.1.1,0,1,0,.1-.1A.1.1,0,0,0,1348.02,24.691Z" transform="translate(-438.386 -7.997)" fill="#b1e8a7"/>
  <path id="パス_1225" data-name="パス 1225" d="M1351.9,37.681a.1.1,0,1,0,.1-.1A.1.1,0,0,0,1351.9,37.681Z" transform="translate(-439.647 -12.221)" fill="#b1e8a7"/>
  <path id="パス_1226" data-name="パス 1226" d="M1350.65,37.031a.1.1,0,1,0,.1-.1A.1.1,0,0,0,1350.65,37.031Z" transform="translate(-439.241 -12.01)" fill="#b1e8a7"/>
  <path id="パス_1227" data-name="パス 1227" d="M1363.852,27.091a.1.1,0,1,0-.1.1A.1.1,0,0,0,1363.852,27.091Z" transform="translate(-443.469 -8.777)" fill="#b1e8a7"/>
  <circle id="楕円形_10" data-name="楕円形 10" cx="0.101" cy="0.101" r="0.101" transform="translate(913.157 25.649)" fill="#b1e8a7"/>
  <path id="パス_1228" data-name="パス 1228" d="M1363.241,25.882a.1.1,0,1,0-.1-.1A.1.1,0,0,0,1363.241,25.882Z" transform="translate(-443.303 -8.351)" fill="#b1e8a7"/>
  <path id="パス_1229" data-name="パス 1229" d="M1347.72,34.031a.1.1,0,1,0,.1-.1A.1.1,0,0,0,1347.72,34.031Z" transform="translate(-438.288 -11.034)" fill="#b1e8a7"/>
  <path id="パス_1230" data-name="パス 1230" d="M1347.532,25.911a.1.1,0,1,0-.1.1A.1.1,0,0,0,1347.532,25.911Z" transform="translate(-438.161 -8.394)" fill="#b1e8a7"/>
  <path id="パス_1231" data-name="パス 1231" d="M1364.041,28.572a.1.1,0,1,0-.1-.1A.1.1,0,0,0,1364.041,28.572Z" transform="translate(-443.563 -9.226)" fill="#b1e8a7"/>
  <path id="パス_1232" data-name="パス 1232" d="M1346.811,31.522a.1.1,0,1,0-.1-.1A.1.1,0,0,0,1346.811,31.522Z" transform="translate(-437.96 -10.185)" fill="#b1e8a7"/>
  <path id="パス_1233" data-name="パス 1233" d="M1347.211,32.872a.1.1,0,1,0-.1-.1A.1.1,0,0,0,1347.211,32.872Z" transform="translate(-438.09 -10.625)" fill="#b1e8a7"/>
  <path id="パス_1234" data-name="パス 1234" d="M1346.772,28.621a.1.1,0,1,0-.1.1A.1.1,0,0,0,1346.772,28.621Z" transform="translate(-437.914 -9.275)" fill="#b1e8a7"/>
  <circle id="楕円形_11" data-name="楕円形 11" cx="0.101" cy="0.101" r="0.101" transform="translate(908.838 18.314)" fill="#b1e8a7"/>
  <path id="パス_1235" data-name="パス 1235" d="M1346.53,30.021a.1.1,0,1,0,.1-.1A.1.1,0,0,0,1346.53,30.021Z" transform="translate(-437.901 -9.73)" fill="#b1e8a7"/>
  <path id="パス_1236" data-name="パス 1236" d="M1361.52,23.481a.1.1,0,1,0,.1-.1A.1.1,0,0,0,1361.52,23.481Z" transform="translate(-442.776 -7.603)" fill="#b1e8a7"/>
  <path id="パス_1237" data-name="パス 1237" d="M1362.42,24.571a.1.1,0,1,0,.1-.1A.1.1,0,0,0,1362.42,24.571Z" transform="translate(-443.069 -7.958)" fill="#b1e8a7"/>
  <path id="パス_1238" data-name="パス 1238" d="M1362.08,35.081a.1.1,0,1,0,.1-.1A.1.1,0,0,0,1362.08,35.081Z" transform="translate(-442.958 -11.376)" fill="#b1e8a7"/>
  <path id="パス_1239" data-name="パス 1239" d="M1361.211,36.212a.1.1,0,1,0-.1-.1A.1.1,0,0,0,1361.211,36.212Z" transform="translate(-442.643 -11.711)" fill="#b1e8a7"/>
  <path id="パス_1240" data-name="パス 1240" d="M1363.951,31.392a.1.1,0,1,0-.1-.1A.1.1,0,0,0,1363.951,31.392Z" transform="translate(-443.534 -10.143)" fill="#b1e8a7"/>
  <path id="パス_1241" data-name="パス 1241" d="M1362.981,33.82a.1.1,0,1,0,.1.1A.1.1,0,0,0,1362.981,33.82Z" transform="translate(-443.218 -10.999)" fill="#b1e8a7"/>
  <path id="パス_1242" data-name="パス 1242" d="M1364.213,29.881a.1.1,0,1,0-.1.1A.1.1,0,0,0,1364.213,29.881Z" transform="translate(-443.586 -9.685)" fill="#b1e8a7"/>
  <path id="パス_1243" data-name="パス 1243" d="M1363.47,32.641a.1.1,0,1,0,.1-.1A.1.1,0,0,0,1363.47,32.641Z" transform="translate(-443.41 -10.582)" fill="#b1e8a7"/>
  <path id="パス_1244" data-name="パス 1244" d="M1360,36.961a.1.1,0,1,0,.1-.1A.1.1,0,0,0,1360,36.961Z" transform="translate(-442.282 -11.987)" fill="#b1e8a7"/>
  <path id="パス_1245" data-name="パス 1245" d="M1354.63,38.331a.1.1,0,1,0,.1-.1A.1.1,0,0,0,1354.63,38.331Z" transform="translate(-440.536 -12.433)" fill="#b1e8a7"/>
  <path id="パス_1246" data-name="パス 1246" d="M1356.04,38.321a.1.1,0,1,0,.1-.1A.1.1,0,0,0,1356.04,38.321Z" transform="translate(-440.994 -12.429)" fill="#b1e8a7"/>
  <path id="パス_1247" data-name="パス 1247" d="M1357.42,38.081a.1.1,0,1,0,.1-.1A.1.1,0,0,0,1357.42,38.081Z" transform="translate(-441.443 -12.351)" fill="#b1e8a7"/>
  <path id="パス_1248" data-name="パス 1248" d="M1358.76,37.631a.1.1,0,1,0,.1-.1A.1.1,0,0,0,1358.76,37.631Z" transform="translate(-441.879 -12.205)" fill="#b1e8a7"/>
  <path id="パス_1249" data-name="パス 1249" d="M1324.412,23.591a.1.1,0,1,0-.1.1A.1.1,0,0,0,1324.412,23.591Z" transform="translate(-430.643 -7.639)" fill="#b1e8a7"/>
  <path id="パス_1250" data-name="パス 1250" d="M1324.911,36.292a.1.1,0,1,0-.1-.1A.1.1,0,0,0,1324.911,36.292Z" transform="translate(-430.838 -11.737)" fill="#b1e8a7"/>
  <path id="パス_1251" data-name="パス 1251" d="M1324.032,35.191a.1.1,0,1,0-.1.1A.1.1,0,0,0,1324.032,35.191Z" transform="translate(-430.519 -11.412)" fill="#b1e8a7"/>
  <path id="パス_1252" data-name="パス 1252" d="M1323.523,24.691a.1.1,0,1,0-.1.1A.1.1,0,0,0,1323.523,24.691Z" transform="translate(-430.353 -7.997)" fill="#b1e8a7"/>
  <path id="パス_1253" data-name="パス 1253" d="M1327.2,37.681a.1.1,0,1,0,.1-.1A.1.1,0,0,0,1327.2,37.681Z" transform="translate(-431.615 -12.221)" fill="#b1e8a7"/>
  <path id="パス_1254" data-name="パス 1254" d="M1325.95,37.031a.1.1,0,1,0,.1-.1A.1.1,0,0,0,1325.95,37.031Z" transform="translate(-431.208 -12.01)" fill="#b1e8a7"/>
  <path id="パス_1255" data-name="パス 1255" d="M1339.051,26.99a.1.1,0,1,0,.1.1A.1.1,0,0,0,1339.051,26.99Z" transform="translate(-435.436 -8.777)" fill="#b1e8a7"/>
  <path id="パス_1256" data-name="パス 1256" d="M1328.54,38.111a.1.1,0,1,0,.1-.1A.1.1,0,0,0,1328.54,38.111Z" transform="translate(-432.051 -12.361)" fill="#b1e8a7"/>
  <path id="パス_1257" data-name="パス 1257" d="M1338.541,25.882a.1.1,0,1,0-.1-.1A.1.1,0,0,0,1338.541,25.882Z" transform="translate(-435.27 -8.351)" fill="#b1e8a7"/>
  <path id="パス_1258" data-name="パス 1258" d="M1323.222,34.031a.1.1,0,1,0-.1.1A.1.1,0,0,0,1323.222,34.031Z" transform="translate(-430.256 -11.034)" fill="#b1e8a7"/>
  <path id="パス_1259" data-name="パス 1259" d="M1322.731,26.012a.1.1,0,1,0-.1-.1A.1.1,0,0,0,1322.731,26.012Z" transform="translate(-430.129 -8.394)" fill="#b1e8a7"/>
  <path id="パス_1260" data-name="パス 1260" d="M1339.341,28.37a.1.1,0,1,0,.1.1A.1.1,0,0,0,1339.341,28.37Z" transform="translate(-435.531 -9.226)" fill="#b1e8a7"/>
  <path id="パス_1261" data-name="パス 1261" d="M1322.111,31.32a.1.1,0,1,0,.1.1A.1.1,0,0,0,1322.111,31.32Z" transform="translate(-429.927 -10.185)" fill="#b1e8a7"/>
  <path id="パス_1262" data-name="パス 1262" d="M1322.41,32.771a.1.1,0,1,0,.1-.1A.1.1,0,0,0,1322.41,32.771Z" transform="translate(-430.057 -10.625)" fill="#b1e8a7"/>
  <path id="パス_1263" data-name="パス 1263" d="M1321.971,28.52a.1.1,0,1,0,.1.1A.1.1,0,0,0,1321.971,28.52Z" transform="translate(-429.882 -9.275)" fill="#b1e8a7"/>
  <path id="パス_1264" data-name="パス 1264" d="M1322.241,27.14a.1.1,0,1,0,.1.1A.1.1,0,0,0,1322.241,27.14Z" transform="translate(-429.969 -8.826)" fill="#b1e8a7"/>
  <path id="パス_1265" data-name="パス 1265" d="M1321.83,30.021a.1.1,0,1,0,.1-.1A.1.1,0,0,0,1321.83,30.021Z" transform="translate(-429.869 -9.73)" fill="#b1e8a7"/>
  <path id="パス_1266" data-name="パス 1266" d="M1337.022,23.481a.1.1,0,1,0-.1.1A.1.1,0,0,0,1337.022,23.481Z" transform="translate(-434.743 -7.603)" fill="#b1e8a7"/>
  <circle id="楕円形_12" data-name="楕円形 12" cx="0.101" cy="0.101" r="0.101" transform="translate(902.684 16.512)" fill="#b1e8a7"/>
  <path id="パス_1267" data-name="パス 1267" d="M1337.583,35.081a.1.1,0,1,0-.1.1A.1.1,0,0,0,1337.583,35.081Z" transform="translate(-434.926 -11.376)" fill="#b1e8a7"/>
  <path id="パス_1268" data-name="パス 1268" d="M1336.511,36.212a.1.1,0,1,0-.1-.1A.1.1,0,0,0,1336.511,36.212Z" transform="translate(-434.61 -11.711)" fill="#b1e8a7"/>
  <path id="パス_1269" data-name="パス 1269" d="M1339.15,31.291a.1.1,0,1,0,.1-.1A.1.1,0,0,0,1339.15,31.291Z" transform="translate(-435.501 -10.143)" fill="#b1e8a7"/>
  <path id="パス_1270" data-name="パス 1270" d="M1338.281,33.82a.1.1,0,1,0,.1.1A.1.1,0,0,0,1338.281,33.82Z" transform="translate(-435.186 -10.999)" fill="#b1e8a7"/>
  <path id="パス_1271" data-name="パス 1271" d="M1339.512,29.881a.1.1,0,1,0-.1.1A.1.1,0,0,0,1339.512,29.881Z" transform="translate(-435.553 -9.685)" fill="#b1e8a7"/>
  <path id="パス_1272" data-name="パス 1272" d="M1338.77,32.641a.1.1,0,1,0,.1-.1A.1.1,0,0,0,1338.77,32.641Z" transform="translate(-435.378 -10.582)" fill="#b1e8a7"/>
  <path id="パス_1273" data-name="パス 1273" d="M1335.3,36.961a.1.1,0,1,0,.1-.1A.1.1,0,0,0,1335.3,36.961Z" transform="translate(-434.249 -11.987)" fill="#b1e8a7"/>
  <path id="パス_1274" data-name="パス 1274" d="M1329.93,38.331a.1.1,0,1,0,.1-.1A.1.1,0,0,0,1329.93,38.331Z" transform="translate(-432.503 -12.433)" fill="#b1e8a7"/>
  <path id="パス_1275" data-name="パス 1275" d="M1331.34,38.321a.1.1,0,1,0,.1-.1A.1.1,0,0,0,1331.34,38.321Z" transform="translate(-432.961 -12.429)" fill="#b1e8a7"/>
  <circle id="楕円形_13" data-name="楕円形 13" cx="0.101" cy="0.101" r="0.101" transform="translate(899.31 25.629)" fill="#b1e8a7"/>
  <path id="パス_1276" data-name="パス 1276" d="M1334.06,37.631a.1.1,0,1,0,.1-.1A.1.1,0,0,0,1334.06,37.631Z" transform="translate(-433.846 -12.205)" fill="#b1e8a7"/>
  <path id="パス_1277" data-name="パス 1277" d="M1062.279,79.963l-.2-16.485a5.664,5.664,0,0,0,2.956.85c3.172,0,5.817-2.726,6.438-6.357,2.517-1.12,4.312-4.056,4.312-7.5a8.914,8.914,0,0,0-1.734-5.4,9.46,9.46,0,0,0,.182-1.876c0-4.413-2.942-7.983-6.579-7.983h-.176c-.682-3.529-3.293-6.154-6.4-6.154s-5.722,2.625-6.4,6.154h-.176c-3.63,0-6.579,3.576-6.579,7.983a9.806,9.806,0,0,0,.169,1.795,9.068,9.068,0,0,0-1.5,5.068,8.146,8.146,0,0,0,4.042,7.369c.52,3.779,3.225,6.653,6.485,6.653a5.621,5.621,0,0,0,2.956-.85l-.2,16.721h-20.912V39.28h3.4V29.07h-15.122V39.28h3.4V50.765q-7.794-3.573-15.594-7.139v7.187l-15.689-7.187v7.139l-15.689-7.187V79.963h-7.018V0H947.268V79.963H926.922l-.216-18.273a6.233,6.233,0,0,0,3.266.938c3.509,0,6.438-3.016,7.126-7.031,2.787-1.242,4.771-4.487,4.771-8.3a9.927,9.927,0,0,0-1.916-5.972,10.422,10.422,0,0,0,.2-2.072c0-4.879-3.259-8.833-7.281-8.833h-.2c-.756-3.9-3.637-6.809-7.085-6.809s-6.33,2.908-7.085,6.809h-.2c-4.022,0-7.281,3.954-7.281,8.833a10.578,10.578,0,0,0,.182,1.984,10.025,10.025,0,0,0-1.653,5.608A9.041,9.041,0,0,0,914.034,55c.58,4.177,3.57,7.362,7.18,7.362a6.233,6.233,0,0,0,3.266-.938l-.216,18.53H911.139a2.792,2.792,0,0,0-2.76-2.463H908.2l-.324-19.13h-.648l-.115-39.3h-.25c-.007-.162-.013-.331-.027-.493a8.1,8.1,0,0,1,.418-1.9,9.346,9.346,0,0,1,1.087-2.011c.007-.013.02-.02.027-.034.054-.067.108-.128.162-.189.142-.169.3-.324.452-.479a7.92,7.92,0,0,1,3.482-2.038,7.821,7.821,0,0,1,4.487.182,10.081,10.081,0,0,1,4.494,3.165.613.613,0,0,0,.857,0,.619.619,0,0,0,0-.857,10.315,10.315,0,0,0-9.488-3.813,8.94,8.94,0,0,0-6.4,4.919c-.067.155-.135.31-.2.466a8.507,8.507,0,0,0-1.937-2.922,9.224,9.224,0,0,0-4.028-2.328,9,9,0,0,0-5.135.209,11.332,11.332,0,0,0-4.994,3.462.626.626,0,0,0,0,.857.613.613,0,0,0,.857,0c2.018-2.4,5.189-4.089,8.394-3.482a7.864,7.864,0,0,1,3.792,1.91,8.3,8.3,0,0,1,.891.931c.013.013.027.034.04.047.047.061.094.128.135.189a8.47,8.47,0,0,1,.709,1.221,7.614,7.614,0,0,1,.661,2.483c-.014.162-.02.331-.027.493h-.25l-.115,39.3h-.648l-.324,19.13h-.182a2.777,2.777,0,0,0-2.76,2.463H892.11V36.877H876.441V24.191h-24.07v-12.8H830.427V24.2h-24.07V36.884H790.689V79.97h-19l-.25-21.168a7.177,7.177,0,0,0,3.772,1.086c4.056,0,7.443-3.482,8.232-8.125,3.219-1.431,5.513-5.182,5.513-9.589a11.431,11.431,0,0,0-2.213-6.9,12.122,12.122,0,0,0,.236-2.4c0-5.641-3.765-10.21-8.408-10.21-.074,0-.148,0-.223.007-.87-4.508-4.2-7.868-8.185-7.868s-7.315,3.36-8.185,7.868c-.074,0-.148-.007-.223-.007-4.643,0-8.408,4.568-8.408,10.21a12.142,12.142,0,0,0,.216,2.294,11.565,11.565,0,0,0-1.91,6.478c0,4.244,2.132,7.882,5.169,9.427.668,4.832,4.13,8.509,8.293,8.509a7.177,7.177,0,0,0,3.772-1.086l-.25,21.465H750.957v-54.6h-31.02v54.6H705.28l-.2-16.485a5.664,5.664,0,0,0,2.956.85c3.171,0,5.817-2.726,6.438-6.357,2.517-1.12,4.312-4.056,4.312-7.5a8.914,8.914,0,0,0-1.734-5.4,9.46,9.46,0,0,0,.182-1.876c0-4.413-2.942-7.983-6.579-7.983h-.175c-.682-3.529-3.293-6.154-6.4-6.154s-5.722,2.625-6.4,6.154H697.5c-3.63,0-6.579,3.576-6.579,7.983A9.816,9.816,0,0,0,691.089,45a9.067,9.067,0,0,0-1.5,5.068,8.147,8.147,0,0,0,4.042,7.369c.52,3.779,3.226,6.653,6.485,6.653a5.62,5.62,0,0,0,2.956-.85l-.2,16.721h-12.9v-19.2l1.336.7V58.8l-1.336-.7-14-7.342-2.537-1.329-2.537,1.329L656.951,58.1l-1.336.7V61.46l1.336-.7v19.2h-7.268a2.792,2.792,0,0,0-2.76-2.463h-.182l-.324-19.13h-.648l-.115-39.3h-.25c-.007-.162-.014-.331-.027-.493a8.083,8.083,0,0,1,.418-1.9,9.351,9.351,0,0,1,1.086-2.011c.007-.013.02-.02.027-.034.054-.067.108-.128.162-.189.142-.169.3-.324.452-.479a7.92,7.92,0,0,1,3.482-2.038,7.821,7.821,0,0,1,4.487.182,10.081,10.081,0,0,1,4.494,3.165.613.613,0,0,0,.857,0,.62.62,0,0,0,0-.857,10.315,10.315,0,0,0-9.488-3.813,8.94,8.94,0,0,0-6.4,4.919c-.068.155-.135.31-.2.466a8.509,8.509,0,0,0-1.937-2.922,9.224,9.224,0,0,0-4.029-2.328,9,9,0,0,0-5.135.209,11.332,11.332,0,0,0-4.993,3.462.619.619,0,0,0,0,.857.613.613,0,0,0,.857,0c2.018-2.4,5.189-4.089,8.394-3.482a7.863,7.863,0,0,1,3.792,1.91,8.294,8.294,0,0,1,.891.931c.014.013.027.034.041.047.047.061.094.128.135.189a8.47,8.47,0,0,1,.708,1.221,7.614,7.614,0,0,1,.661,2.483c-.014.162-.02.331-.027.493h-.25l-.115,39.3H643.1l-.324,19.13H642.6a2.777,2.777,0,0,0-2.76,2.463H624.291l-.722-7.747c3.165-.54,6.033-2.875,8.185-5.958a22.73,22.73,0,0,0,3.894-13.28,40.14,40.14,0,0,0-3.6-16.074c-2.288-4.987-5.817-8.9-9.892-8.874-4.076-.027-7.6,3.887-9.893,8.874a40.137,40.137,0,0,0-3.6,16.074,22.728,22.728,0,0,0,3.894,13.28c2.153,3.084,5.027,5.419,8.185,5.958l-.722,7.747H600V40.38H575.5V23.78h-29.5V11.62H533.646V23.78h-29.5v16.6H479.656V79.963H459.642l-.722-7.747c3.165-.54,6.033-2.875,8.185-5.958A22.729,22.729,0,0,0,471,52.978,40.139,40.139,0,0,0,467.4,36.9c-2.288-4.987-5.817-8.9-9.892-8.874-4.076-.027-7.6,3.887-9.892,8.874a40.141,40.141,0,0,0-3.6,16.074,22.729,22.729,0,0,0,3.894,13.28c2.153,3.084,5.027,5.419,8.185,5.958l-.722,7.747H444.176V60.785H442.63V57.87H436.8v2.915H424.667V51.743H392.3v28.22h-3.961V30.946h-25.8V79.963H352.2V52.991h2.645V48.47H324.6v4.521h2.645V79.963h-20.8L306.3,67.911a4.157,4.157,0,0,0,2.173.628c2.335,0,4.285-2.011,4.744-4.683a5.942,5.942,0,0,0,3.178-5.527,6.646,6.646,0,0,0-1.275-3.981,7.123,7.123,0,0,0,.135-1.383c0-3.246-2.173-5.884-4.845-5.884h-.128c-.5-2.6-2.422-4.535-4.717-4.535s-4.217,1.937-4.717,4.535h-.128c-2.679,0-4.845,2.632-4.845,5.884a7.091,7.091,0,0,0,.121,1.323,6.665,6.665,0,0,0-1.1,3.732,6.012,6.012,0,0,0,2.983,5.432c.385,2.78,2.375,4.906,4.778,4.906a4.1,4.1,0,0,0,2.173-.628l-.142,12.227H291.031a2.792,2.792,0,0,0-2.76-2.463h-.182l-.324-19.13h-.648L287,19.063h-.25c-.007-.162-.014-.331-.027-.493a8.088,8.088,0,0,1,.418-1.9,9.352,9.352,0,0,1,1.086-2.011c.007-.013.02-.02.027-.034.054-.067.108-.128.162-.189.142-.169.3-.324.452-.479a7.919,7.919,0,0,1,3.482-2.038,7.821,7.821,0,0,1,4.487.182,10.081,10.081,0,0,1,4.494,3.165.613.613,0,0,0,.857,0,.62.62,0,0,0,0-.857A10.315,10.315,0,0,0,292.7,10.6a8.94,8.94,0,0,0-6.4,4.919c-.067.155-.135.31-.2.466a8.508,8.508,0,0,0-1.937-2.922,9.225,9.225,0,0,0-4.029-2.328,9,9,0,0,0-5.135.209,11.332,11.332,0,0,0-4.993,3.462.62.62,0,0,0,0,.857.613.613,0,0,0,.857,0c2.018-2.4,5.189-4.089,8.394-3.482a7.863,7.863,0,0,1,3.792,1.91,8.306,8.306,0,0,1,.891.931c.013.013.027.034.04.047.047.061.094.128.135.189a8.462,8.462,0,0,1,.709,1.221,7.614,7.614,0,0,1,.661,2.483c-.013.162-.02.331-.027.493h-.25l-.115,39.3h-.648l-.324,19.13h-.182a2.777,2.777,0,0,0-2.76,2.463H262.933l-.047-4.67h10.405L263.21,49.03,253.128,75.28h8.995l-.047,4.67H246.623V47.087h1.97L244.9,31.54H215.36l-3.691,15.547h1.97V79.963H201.831c.007-.783.02-1.842.027-3.1,4.137-.175,9.191-6.9,7.753-15.156-1.458-8.374-3.34-15.169-7.922-15.169s-6.464,6.788-7.922,15.169c-1.221,7.045,2.267,12.97,5.891,14.67,0,1.451.02,2.692.074,3.59H172.814c.007-.783.02-1.842.027-3.1,4.136-.175,9.191-6.9,7.753-15.156-1.458-8.374-3.34-15.169-7.922-15.169s-6.465,6.788-7.922,15.169c-1.221,7.045,2.267,12.97,5.891,14.67,0,1.451.02,2.692.074,3.59H157.733V40.778l.425.4,1.552-1.613-1.97-1.9-13.9-13.374L129.945,37.674l-1.97,1.9,1.552,1.613.425-.4V79.97H115.835l-.047-4.67h10.4L116.1,49.051,106.023,75.3h8.995l-.047,4.67H93.945L93.81,68.276a3.989,3.989,0,0,0,2.112.607c2.267,0,4.163-1.95,4.609-4.548a5.77,5.77,0,0,0,3.084-5.365,6.389,6.389,0,0,0-1.242-3.86,6.715,6.715,0,0,0,.128-1.343c0-3.158-2.105-5.715-4.7-5.715h-.121c-.486-2.524-2.355-4.4-4.582-4.4s-4.1,1.876-4.582,4.4h-.121c-2.6,0-4.7,2.557-4.7,5.715a6.663,6.663,0,0,0,.121,1.282,6.462,6.462,0,0,0-1.066,3.624,5.823,5.823,0,0,0,2.895,5.27c.371,2.7,2.308,4.757,4.643,4.757a3.989,3.989,0,0,0,2.112-.607l-.142,11.863H71.373V57.432l7.841,7.1,2.348-2.6-10.2-9.224L55.778,38.6l-15.588,14.1L30,61.926l2.348,2.6,7.841-7.1V79.956H16.276l-.135-11.694a3.989,3.989,0,0,0,2.112.607c2.267,0,4.163-1.95,4.609-4.548a5.77,5.77,0,0,0,3.084-5.365A6.389,6.389,0,0,0,24.7,55.1a6.715,6.715,0,0,0,.128-1.343c0-3.158-2.105-5.715-4.7-5.715h-.121c-.486-2.524-2.355-4.4-4.582-4.4s-4.1,1.876-4.582,4.4h-.121c-2.6,0-4.7,2.557-4.7,5.715a6.663,6.663,0,0,0,.121,1.282,6.478,6.478,0,0,0-1.08,3.637,5.823,5.823,0,0,0,2.895,5.27c.371,2.7,2.308,4.757,4.643,4.757a3.989,3.989,0,0,0,2.112-.607l-.142,11.863H0v26.317H1079.669V79.956h-17.389ZM55.34,74.652H49.388V68.674H55.34Zm0-6.849H49.388V61.825H55.34Zm6.829,6.849H56.217V68.674h5.952Zm0-6.849H56.217V61.825h5.952Zm77.756-27.025a3.914,3.914,0,0,1,7.828,0v1.835h-7.828Zm1.356,30.42h-6.546V61.453h6.546Zm0-16.451h-6.546V45.009h6.546Zm11.181,25.217h-6.546V61.453h6.546Zm0-25.217h-6.546V45.009h6.546Zm73.006-4.7h4.474v5.614h-4.474Zm-3.333,28.895h-5.459V63.464h5.459Zm.148-23.28H217.81V50.043h4.474Zm9.251,23.28h-7.963V63.464h7.963Zm11.829,1.026h-6.748v-16.5h6.748Zm0-25.217H232.972v-4.7h10.392Zm90.908,14.285h-2.848V66.312h2.848Zm0-8.55h-2.848V57.762h2.848Zm6.734,8.55h-2.848V66.312h2.848Zm0-8.55h-2.848V57.762h2.848Zm6.734,8.55h-2.848V66.312h2.848Zm0-8.55h-2.848V57.762h2.848ZM372.87,71.076h-5.061v-5.2h5.061Zm0-6.991h-5.061v-5.2h5.061Zm0-6.984h-5.061v-5.2h5.061Zm0-6.984h-5.061v-5.2h5.061Zm0-6.991h-5.061v-5.2h5.061Zm10.21,27.95h-5.061v-5.2h5.061Zm0-6.991h-5.061v-5.2h5.061Zm0-6.984h-5.061v-5.2h5.061Zm0-6.984h-5.061v-5.2h5.061Zm0-6.991h-5.061v-5.2h5.061ZM489.906,76.063h-6.714V69.409h6.714Zm0-8.853h-6.714V60.556h6.714Zm0-8.847h-6.714V51.709h6.714Zm0-8.853h-6.714V42.856h6.714Zm10.716,26.553h-6.714V69.409h6.714Zm0-8.853h-6.714V60.556h6.714Zm0-8.847h-6.714V51.709h6.714Zm0-8.853h-6.714V42.856h6.714Zm40.427,4.413V45.09h4.359v8.833Zm4.359,1.417v8.833h-4.359V55.34Zm-4.359-11.66V34.846h4.359v8.833h-4.359Zm-1.215-29.522a3.651,3.651,0,1,1-3.651,3.651A3.649,3.649,0,0,1,539.834,14.157ZM534.26,34.846h4.359v8.833H534.26Zm0,10.243h4.359v8.833H534.26Zm0,10.25h4.359v8.833H534.26Zm-18,7.065h-9.616V56.635h9.616Zm0-8.914h-9.616V47.721h9.616Zm0-8.907h-9.616V38.814h9.616Zm0-8.914h-9.616V29.9h9.616ZM530.279,62.4h-9.616V56.635h9.616Zm0-8.914h-9.616V47.721h9.616Zm0-8.907h-9.616V38.814h9.616Zm0-8.914h-9.616V29.9h9.616Zm18.86,44.293h-18.6V76.157a8.925,8.925,0,0,1,8.927-8.928h.742a8.925,8.925,0,0,1,8.927,8.928v3.806ZM559.005,62.4h-9.616V56.635h9.616Zm0-8.914h-9.616V47.721h9.616Zm0-8.907h-9.616V38.814h9.616Zm0-8.914h-9.616V29.9h9.616ZM573.021,62.4H563.4V56.635h9.616Zm0-8.914H563.4V47.721h9.616Zm0-8.907H563.4V38.814h9.616Zm0-8.914H563.4V29.9h9.616Zm12.733,40.393H579.04V69.409h6.714Zm0-8.853H579.04V60.556h6.714Zm0-8.847H579.04V51.709h6.714Zm0-8.853H579.04V42.856h6.714ZM596.47,76.063h-6.714V69.409h6.714Zm0-8.853h-6.714V60.556h6.714Zm0-8.847h-6.714V51.709h6.714Zm0-8.853h-6.714V42.856h6.714Zm68.417,28.51h-5.972V65.529h5.972Zm7.463,0h-5.972V65.529h5.972Zm3.266-19.171h-4.245V54.6h4.245Zm7.267,21.114h-4.008V67.81h4.008Zm4.791,0h-4.008V67.81h4.008Zm59.922,0h-13.28V75.03H747.6Zm0-8.583H723.371V67.324H747.6Zm0-6.653H723.371V60.671H747.6Zm0-6.66H723.371V54.01H747.6Zm0-6.653H723.371V47.357H747.6Zm0-6.66H723.371V40.7H747.6Zm0-6.653H723.371V34.043H747.6Zm0-6.66H723.371V27.383H747.6Zm49.753,43.355h-3.327V70.239h3.327Zm0-7.295h-3.327V62.945h3.327Zm0-7.294h-3.327V55.65h3.327Zm0-7.3h-3.327V48.349h3.327Zm0-7.295h-3.327V41.054h3.327Zm6.066,29.185h-3.327V70.239h3.327Zm0-7.295h-3.327V62.945h3.327Zm0-7.294h-3.327V55.65h3.327Zm0-7.3h-3.327V48.349h3.327Zm0-7.295h-3.327V41.054h3.327Zm33.564-27.741h3.293V14.576H842.6v3.293h3.293V20.2H842.6V23.49h-2.328V20.2h-3.293ZM834.3,29.2h14.258v7.133H834.3Zm0,11.451h14.258v7.126H834.3Zm0,11.451h14.258v7.133H834.3Zm-8.192,18.989H811.843V63.957h14.265Zm0-11.863H811.843V52.1h14.265Zm0-11.451H811.843V40.65h14.265Zm0-11.444H811.843V29.2h14.265Zm25.575,44.631H829.665l.128-.412.223-.715a.7.7,0,0,0,.2.034h22.423a.636.636,0,0,0,.2-.034l.223.715.128.412Zm-10.831-2.4h11.235l.31.344.25.277H830.225l.25-.277.31-.344h10.068Zm-9.6-.688V63.619h9.191V77.878H831.25Zm11.249,0V63.619h9.191V77.878H842.5Zm10.729-14.947H841.811V77.878h-.688V62.931H829.631V61.217h23.584v1.714Zm17.794,8.158H856.764V63.957h14.258Zm0-11.863H856.764V52.1h14.258Zm0-11.451H856.764V40.65h14.258Zm0-11.444H856.764V29.2h14.258Zm11.755,38.463h-3.327V70.239h3.327Zm0-7.295h-3.327V62.945h3.327Zm0-7.294h-3.327V55.65h3.327Zm0-7.3h-3.327V48.349h3.327Zm0-7.295h-3.327V41.054h3.327Zm6.066,29.185h-3.327V70.239h3.327Zm0-7.295h-3.327V62.945h3.327Zm0-7.294h-3.327V55.65h3.327Zm0-7.3h-3.327V48.349h3.327Zm0-7.295h-3.327V41.054h3.327ZM958,49.908h-4.8V37.687H958Zm0-14.549h-4.8V23.139H958Zm0-14.542h-4.8V8.6H958Zm12.74,29.09h-4.8V37.687h4.8Zm0-14.549h-4.8V23.139h4.8Zm0-14.542h-4.8V8.6h4.8ZM995.785,66.17h-8.509V57.661h8.509Zm15.689.047h-8.509V57.708h8.509Zm15.689,0h-8.509V57.708h8.509Z" fill="#c3bfbf"/>
  <path id="パス_1278" data-name="パス 1278" d="M1243.636,30.514h2.335V27.221h3.293V24.893h-3.293V21.6h-2.335v3.293h-3.286v2.328h3.286Z" transform="translate(-403.371 -7.024)" fill="#fff"/>
  <rect id="長方形_478" data-name="長方形 478" width="3.327" height="4.555" transform="translate(879.451 41.061)" fill="#fff"/>
  <rect id="長方形_479" data-name="長方形 479" width="3.327" height="4.555" transform="translate(885.524 41.061)" fill="#fff"/>
  <rect id="長方形_480" data-name="長方形 480" width="3.327" height="4.555" transform="translate(879.451 48.356)" fill="#fff"/>
  <rect id="長方形_481" data-name="長方形 481" width="3.327" height="4.555" transform="translate(885.524 48.356)" fill="#fff"/>
  <rect id="長方形_482" data-name="長方形 482" width="3.327" height="4.555" transform="translate(879.451 55.65)" fill="#fff"/>
  <rect id="長方形_483" data-name="長方形 483" width="3.327" height="4.555" transform="translate(885.524 55.65)" fill="#fff"/>
  <rect id="長方形_484" data-name="長方形 484" width="3.327" height="4.555" transform="translate(879.451 62.945)" fill="#fff"/>
  <rect id="長方形_485" data-name="長方形 485" width="3.327" height="4.555" transform="translate(885.524 62.945)" fill="#fff"/>
  <rect id="長方形_486" data-name="長方形 486" width="3.327" height="4.555" transform="translate(879.451 70.239)" fill="#fff"/>
  <rect id="長方形_487" data-name="長方形 487" width="3.327" height="4.555" transform="translate(885.524 70.239)" fill="#fff"/>
  <rect id="長方形_488" data-name="長方形 488" width="3.327" height="4.555" transform="translate(800.088 41.061)" fill="#fff"/>
  <rect id="長方形_489" data-name="長方形 489" width="3.327" height="4.555" transform="translate(794.022 41.061)" fill="#fff"/>
  <rect id="長方形_490" data-name="長方形 490" width="3.327" height="4.555" transform="translate(800.088 48.356)" fill="#fff"/>
  <rect id="長方形_491" data-name="長方形 491" width="3.327" height="4.555" transform="translate(794.022 48.356)" fill="#fff"/>
  <rect id="長方形_492" data-name="長方形 492" width="3.327" height="4.555" transform="translate(800.088 55.65)" fill="#fff"/>
  <rect id="長方形_493" data-name="長方形 493" width="3.327" height="4.555" transform="translate(794.022 55.65)" fill="#fff"/>
  <rect id="長方形_494" data-name="長方形 494" width="3.327" height="4.555" transform="translate(800.088 62.945)" fill="#fff"/>
  <rect id="長方形_495" data-name="長方形 495" width="3.327" height="4.555" transform="translate(794.022 62.945)" fill="#fff"/>
  <rect id="長方形_496" data-name="長方形 496" width="3.327" height="4.555" transform="translate(800.088 70.239)" fill="#fff"/>
  <rect id="長方形_497" data-name="長方形 497" width="3.327" height="4.555" transform="translate(794.022 70.239)" fill="#fff"/>
  <rect id="長方形_498" data-name="長方形 498" width="9.191" height="14.258" transform="translate(831.25 63.619)" fill="#fff"/>
  <rect id="長方形_499" data-name="長方形 499" width="9.191" height="14.258" transform="translate(842.499 63.619)" fill="#fff"/>
  <rect id="長方形_500" data-name="長方形 500" width="14.265" height="7.133" transform="translate(811.85 63.957)" fill="#fff"/>
  <rect id="長方形_501" data-name="長方形 501" width="14.258" height="7.133" transform="translate(856.757 63.957)" fill="#fff"/>
  <rect id="長方形_502" data-name="長方形 502" width="14.265" height="7.133" transform="translate(811.85 29.198)" fill="#fff"/>
  <rect id="長方形_503" data-name="長方形 503" width="14.258" height="7.133" transform="translate(834.3 29.198)" fill="#fff"/>
  <rect id="長方形_504" data-name="長方形 504" width="14.258" height="7.133" transform="translate(856.757 29.198)" fill="#fff"/>
  <rect id="長方形_505" data-name="長方形 505" width="14.265" height="7.133" transform="translate(811.85 40.65)" fill="#fff"/>
  <rect id="長方形_506" data-name="長方形 506" width="14.258" height="7.133" transform="translate(834.3 40.65)" fill="#fff"/>
  <rect id="長方形_507" data-name="長方形 507" width="14.258" height="7.133" transform="translate(856.757 40.65)" fill="#fff"/>
  <rect id="長方形_508" data-name="長方形 508" width="14.265" height="7.133" transform="translate(811.85 52.101)" fill="#fff"/>
  <rect id="長方形_509" data-name="長方形 509" width="14.258" height="7.133" transform="translate(834.3 52.101)" fill="#fff"/>
  <rect id="長方形_510" data-name="長方形 510" width="14.258" height="7.133" transform="translate(856.757 52.101)" fill="#fff"/>
  <path id="パス_1279" data-name="パス 1279" d="M1229.47,92.434h11.485v14.947h.688V92.434h11.417V90.72H1229.47Z" transform="translate(-399.833 -29.503)" fill="#fff"/>
  <path id="パス_1280" data-name="パス 1280" d="M1252.7,118.31a.707.707,0,0,1-.2.034h-22.423a.637.637,0,0,1-.2-.034l-.223.715-.128.412h23.537l-.128-.412Z" transform="translate(-399.849 -38.475)" fill="#fff"/>
  <path id="パス_1281" data-name="パス 1281" d="M1230.9,116.43l-.31.344-.25.27h22.417l-.243-.27-.317-.344h-21.3Z" transform="translate(-400.116 -37.864)" fill="#fff"/>
</svg>
