<svg xmlns="http://www.w3.org/2000/svg" width="145.999" height="25.299"><defs><style>.a{fill:#ff6c7a}.b{fill:#ffb5bc}</style></defs><path class="a" d="M18.215 23.578a1.543 1.543 0 01-1.765 1.7c-1.765 0-1.806-1.292-1.806-1.7v-6.97c0-1.376-.925-1.468-1.274-1.468-.734 0-1.376.429-2.011 1.538v6.9c0 .367 0 1.7-1.787 1.7s-1.787-1.292-1.787-1.7v-6.974a1.284 1.284 0 00-1.27-1.468c-1.274 0-1.787 1.211-2.055 1.806v6.636a1.543 1.543 0 01-1.765 1.7c-1.765 0-1.806-1.292-1.806-1.7V14.96a1.534 1.534 0 01.246-1.05 1.872 1.872 0 011.52-.675c1.806 0 1.806 1.292 1.806 1.743a3.817 3.817 0 013.254-1.743 3.61 3.61 0 013.263 2.092 3.987 3.987 0 013.571-2.092 3.581 3.581 0 013.666 3.843z"/><path class="b" d="M28.454 16.828c0-1.314-.367-2.074-1.835-2.074-1.288 0-1.45.661-1.655 1.417-.286 1.127-1.622 1.127-1.787 1.127-1.024 0-1.784-.617-1.784-1.332 0-.925 1.395-2.731 5.171-2.731 3.718 0 5.421 1.6 5.421 4.742v3.67a5.506 5.506 0 00.081 1.006 8.83 8.83 0 01.239 1.031 1.968 1.968 0 01-2.055 1.6c-.965 0-1.292-.514-1.622-1.292a5.127 5.127 0 01-3.817 1.292c-.617 0-4.067 0-4.067-3.531 0-3.942 4.353-3.982 7.708-4zm0 2.3c-3.1.022-4.125.451-4.125 2.463 0 1.028.286 2.015 1.835 2.015a3.34 3.34 0 002.279-.907z"/><path class="a" d="M52.862 23.578a1.543 1.543 0 01-1.765 1.7c-1.765 0-1.806-1.292-1.806-1.7v-6.97c0-1.376-.925-1.468-1.274-1.468-.734 0-1.376.429-2.011 1.538v6.9c0 .367 0 1.7-1.787 1.7s-1.787-1.292-1.787-1.7v-6.974a1.284 1.284 0 00-1.27-1.468c-1.274 0-1.787 1.211-2.055 1.806v6.636a1.543 1.543 0 01-1.765 1.7c-1.765 0-1.806-1.292-1.806-1.7V14.96a1.534 1.534 0 01.246-1.05 1.872 1.872 0 011.519-.675c1.806 0 1.806 1.292 1.806 1.743a3.824 3.824 0 013.267-1.743 3.61 3.61 0 013.263 2.092 3.987 3.987 0 013.571-2.092 3.581 3.581 0 013.67 3.839z"/><path class="b" d="M63.087 16.828c0-1.314-.367-2.074-1.835-2.074-1.274 0-1.439.657-1.644 1.417-.286 1.127-1.622 1.127-1.784 1.127-1.028 0-1.787-.617-1.787-1.332 0-.925 1.395-2.731 5.175-2.731 3.714 0 5.417 1.6 5.417 4.742v3.67a5.109 5.109 0 00.084 1.006 9.6 9.6 0 01.246 1.046 1.968 1.968 0 01-2.055 1.6c-.962 0-1.292-.514-1.622-1.292a5.112 5.112 0 01-3.817 1.292c-.617 0-4.067 0-4.067-3.531 0-3.942 4.353-3.982 7.708-4zm0 2.3c-3.1.022-4.125.451-4.125 2.463 0 1.028.286 2.015 1.835 2.015a3.325 3.325 0 002.279-.907z"/><path class="a" d="M83.322 23.993c-.224 1.046-1.578 1.292-2.338 1.292-1.5 0-2.033-.76-2.176-1.292l-2.2-8.581a3.932 3.932 0 01-.121-.6 1.876 1.876 0 012.052-1.578 1.434 1.434 0 011.538 1.292l1.89 7.392c.062.224.081.286.184.286s.125-.1.165-.286l1.468-7.146a2.236 2.236 0 012.422-1.538 2.352 2.352 0 012.382 1.292l1.89 7.37c.062.246.1.308.184.308s.1-.04.165-.308l1.835-8.075a.735.735 0 111.431.33l-2.235 9.855c-.29 1.292-2.055 1.292-2.2 1.292-.987 0-2.074-.367-2.323-1.292l-1.971-7.708c-.059-.25-.1-.367-.2-.367s-.147.084-.206.367z"/><path class="b" d="M107.843 19.269c0 3.615-2.074 6.016-5.792 6.016s-5.788-2.4-5.788-6.016c0-3.549 2.033-6.034 5.788-6.034s5.792 2.485 5.792 6.034zm-7.865 0c0 3.428.679 4.559 2.074 4.559 1.336 0 2.1-1.006 2.1-4.559 0-3.428-.679-4.577-2.1-4.577-1.315-.011-2.075.983-2.075 4.577z"/><path class="a" d="M114.676 23.582a1.56 1.56 0 01-1.784 1.7c-1.765 0-1.809-1.292-1.809-1.7V14.96a1.565 1.565 0 011.787-1.725c1.787 0 1.806 1.314 1.806 1.725v1.046c.536-1.542 1.6-2.771 2.936-2.771a1.468 1.468 0 011.468 1.468 1.571 1.571 0 01-1.637 1.52c-2.2.33-2.588 1.5-2.753 2.074z"/><path class="b" d="M133.505 22.756a1.49 1.49 0 01.206.639 2.153 2.153 0 01-2.158 1.887c-.514 0-.8-.206-1.189-.76l-3.938-5.62-.639.429v4.25a1.543 1.543 0 01-1.765 1.7c-1.765 0-1.791-1.292-1.791-1.7V9.888a1.557 1.557 0 011.765-1.725 1.578 1.578 0 011.806 1.725v7.678l6.386-4.21a.8.8 0 01.411-.121.734.734 0 01.734.76.763.763 0 01-.367.595l-3.553 2.342z"/><path class="a" d="M139.334 21.857c.1 1.519.657 1.931 1.6 1.931 1.336 0 1.468-.8 1.468-1.354 0-1.211-.679-1.468-2.033-1.953-3.182-1.149-4.335-1.835-4.335-3.817 0-2.9 2.69-3.428 4.661-3.428 3.49 0 4.771 1.765 4.771 2.789a1.64 1.64 0 01-1.743 1.468 1.514 1.514 0 01-1.643-1.618 1.2 1.2 0 00-1.314-1.171c-.617 0-1.13.268-1.13 1.233 0 1.1.349 1.211 2.261 1.909 2.235.822 4.1 1.5 4.1 4 0 3.182-3.446 3.428-4.948 3.428-2.5 0-3.67-.76-4.309-1.468a2.98 2.98 0 01-.863-1.868c0-1.046 1.1-1.468 1.784-1.468a1.556 1.556 0 011.673 1.387zM.373 1.523a.338.338 0 110-.672h6.4a.734.734 0 01.785.734c0 .5-.943 1.56-1.494 2.118a12.112 12.112 0 01-2.048 1.632c1.266 1.046 1.45 1.3 1.45 1.6a.984.984 0 01-.954.907c-.367 0-.484-.217-.7-.595a10.277 10.277 0 00-2.296-2.662c-.294-.228-.367-.294-.367-.466a.367.367 0 01.367-.368 8.153 8.153 0 011.771 1.028 7.824 7.824 0 002.177-3.083.195.195 0 00-.22-.191zM9.549 1.523a.338.338 0 110-.672h6.4a.734.734 0 01.785.734c0 .5-.943 1.56-1.494 2.118a12.112 12.112 0 01-2.048 1.632c1.266 1.046 1.45 1.3 1.45 1.6a.984.984 0 01-.954.907c-.367 0-.484-.217-.7-.595a10.277 10.277 0 00-2.296-2.662c-.294-.228-.367-.294-.367-.466a.367.367 0 01.367-.367 8.153 8.153 0 011.769 1.028 7.824 7.824 0 002.176-3.083.195.195 0 00-.22-.191zM24.934.815a.866.866 0 01.881.918 7.341 7.341 0 01-1.219 3.817 5.432 5.432 0 01-3.01 2.008 5.432 5.432 0 01-1.035.239.33.33 0 01-.341-.33c0-.239.092-.283.562-.418a4.441 4.441 0 002.936-3.167 8.1 8.1 0 00.246-2.074c0-.173-.081-.319-.264-.319h-3.021a.253.253 0 00-.257.257v1.528c0 .231 0 .734-.837.734s-.851-.441-.851-.734V1.695a.874.874 0 01.881-.881zM35.138 3.67a.448.448 0 01.422.47.437.437 0 01-.422.466h-7.495a.433.433 0 01-.411-.459.44.44 0 01.423-.477zM43.543 1.523a.734.734 0 01.734.734 6.939 6.939 0 01-2.694 4.727 7.9 7.9 0 01-3.175 1.1c-.165.026-.7.1-.855.1a.334.334 0 01-.367-.338c0-.275.2-.312.525-.367a5.261 5.261 0 003.946-2.551 5.913 5.913 0 00.778-2.477c0-.139-.062-.268-.22-.268H40.16a5.99 5.99 0 01-1.78 1.809 4.588 4.588 0 01-1.182.587.367.367 0 01-.367-.349c0-.165.066-.231.367-.459a4.771 4.771 0 001.718-2.727c.18-.752.242-1.046.914-1.046.367 0 1 .165 1 .7a2.059 2.059 0 01-.283.818zM46.68 1.586c-.367 0-.367-.264-.367-.33s0-.338.367-.338h4.992a.756.756 0 01.734.76 7.262 7.262 0 01-1.387 2.991A15.475 15.475 0 0152.99 5.91c.525.367.617.558.617.734a.921.921 0 01-.936.84c-.338 0-.422-.092-.907-.785a8.851 8.851 0 00-1.267-1.413 8.753 8.753 0 01-4.3 2.422.338.338 0 01-.319-.349c0-.246.154-.312.466-.429a6.341 6.341 0 004.129-5.094.22.22 0 00-.22-.239z"/></svg>